<svg xmlns="http://www.w3.org/2000/svg" width="17.529" height="20" viewBox="0 0 17.529 20">
  <g id="exit_user" data-name="exit user" transform="translate(-276 -1809.983)">
    <g id="Path_8048" data-name="Path 8048" transform="translate(276 1810)" fill="none" stroke-linecap="round">
      <path d="M1.029,0,6.174,3.145c.5.312,1.029.469,1.029,1.048V18.866c0,1.363-.563,1.131-1.029,1.048L1.029,16.77C.225,16.264,0,16.3,0,15.722V1.049C0,.47.209-.13,1.029,0Z" stroke="none"/>
      <path d="M 0.793339729309082 0.7358264923095703 C 0.7748737335205078 0.7821865081787109 0.7499980926513672 0.882049560546875 0.7499980926513672 1.048904418945312 L 0.7499980926513672 15.72182464599609 C 0.7499980926513672 15.72608184814453 0.7500171661376953 15.73016738891602 0.7500519752502441 15.73407936096191 C 0.8051400184631348 15.76809787750244 0.8811302185058594 15.81147193908691 0.9468483924865723 15.84898471832275 C 1.074721813201904 15.92197799682617 1.233606815338135 16.01266479492188 1.423783779144287 16.13222885131836 L 6.435586452484131 19.19523048400879 C 6.445084571838379 19.11763000488281 6.45253849029541 19.01065254211426 6.45253849029541 18.86602401733398 L 6.45253849029541 4.193095207214355 C 6.45253849029541 4.192890167236328 6.452537536621094 4.19268798828125 6.452537059783936 4.192487716674805 C 6.396275997161865 4.134933471679688 6.217549800872803 4.035106658935547 6.09656810760498 3.967525482177734 C 5.999788761138916 3.913461685180664 5.890208721160889 3.852256774902344 5.779217720031738 3.782985687255859 L 0.793339729309082 0.7358264923095703 M 0.8132777214050293 -0.01735115051269531 C 0.8799958229064941 -0.01735115051269531 0.951718807220459 -0.01150321960449219 1.028938293457031 0.000835418701171875 L 6.173598289489746 3.145034790039062 C 6.671928405761719 3.456684112548828 7.20253849029541 3.614265441894531 7.20253849029541 4.193095207214355 L 7.20253849029541 18.86602401733398 C 7.20253849029541 20.22924423217773 6.6396484375 19.99750518798828 6.173598289489746 19.91409492492676 L 1.028938293457031 16.76989555358887 C 0.2248883247375488 16.26377487182617 -1.9073486328125e-06 16.30065536499023 -1.9073486328125e-06 15.72182464599609 L -1.9073486328125e-06 1.048904418945312 C -1.9073486328125e-06 0.5245780944824219 0.1715641021728516 -0.01735115051269531 0.8132777214050293 -0.01735115051269531 Z" stroke="none" fill="#121212"/>
    </g>
    <path id="Path_8046" data-name="Path 8046" d="M-569.259,4744.217v4.536H-574.3" transform="translate(857.207 -2922.396)" fill="none" stroke="#121212" stroke-linecap="round" stroke-width="0.75"/>
    <path id="Path_8051" data-name="Path 8051" d="M-1,0H7.231" transform="translate(285.769 1818.427)" fill="none" stroke="#121212" stroke-linecap="round" stroke-width="0.75"/>
    <path id="Path_8049" data-name="Path 8049" d="M0-1,3.087,1.614" transform="translate(289.913 1816.781)" fill="none" stroke="#121212" stroke-linecap="round" stroke-width="0.75"/>
    <path id="Path_8050" data-name="Path 8050" d="M0,1.614,3.087-1" transform="translate(289.913 1819.451)" fill="none" stroke="#121212" stroke-linecap="round" stroke-width="0.75"/>
    <path id="Path_8047" data-name="Path 8047" d="M-580.3,4733.375h11.219v4.86" transform="translate(857.02 -2922.989)" fill="none" stroke="#121212" stroke-linecap="round" stroke-linejoin="round" stroke-width="0.75"/>
    <line id="Line_962" data-name="Line 962" x2="1" transform="translate(279.988 1819.633)" fill="none" stroke="#121212" stroke-linecap="round" stroke-width="1.25"/>
  </g>
</svg>
