<svg xmlns="http://www.w3.org/2000/svg" width="23.02" height="23.02" viewBox="0 0 23.02 23.02">
    <g id="high" transform="translate(-306.911 -517.409)">
        <path id="Path_5836" data-name="Path 5836"
              d="M74.949,645.054a11.135,11.135,0,1,0-11.135-11.135A11.156,11.156,0,0,0,74.949,645.054Z"
              transform="translate(243.472 -105)" fill="none" stroke="#121212" stroke-miterlimit="2.613"
              stroke-width="0.75" fill-rule="evenodd"/>
        <path id="Path_5843" data-name="Path 5843"
              d="M82.223,626.615a9.394,9.394,0,0,1,1.273,2.806,7.858,7.858,0,0,0-2.7.9c-.774.333-1.545.7-2.324,1.023l-4.657,1.944-.04.018a2.409,2.409,0,1,0,2.459,3.821l3.755-3.394c.624-.565,1.282-1.107,1.915-1.666a11.007,11.007,0,0,0,1.783-1.728A9.455,9.455,0,1,1,66.5,626.615Z"
              transform="translate(244.058 -102.947)" fill="red" fill-rule="evenodd"/>
        <path id="Path_5844" data-name="Path 5844" d="M83.816,633.656a9.459,9.459,0,1,0-18.908,0"
              transform="translate(244.058 -104.413)" fill="none" stroke="#121212" stroke-miterlimit="2.613"
              stroke-width="0.5" fill-rule="evenodd"/>
        <line id="Line_458" data-name="Line 458" y1="1.203" x2="1.203" transform="translate(323.903 522.234)"
              fill="none" stroke="#121212" stroke-miterlimit="2.613" stroke-width="0.5"/>
        <line id="Line_459" data-name="Line 459" x1="1.701" transform="translate(326.173 528.92)" fill="none"
              stroke="#121212" stroke-miterlimit="2.613" stroke-width="0.5"/>
        <line id="Line_460" data-name="Line 460" y1="1.701" transform="translate(318.42 519.466)" fill="none"
              stroke="#121212" stroke-miterlimit="2.613" stroke-width="0.5"/>
        <line id="Line_461" data-name="Line 461" x1="1.203" y1="1.203" transform="translate(311.735 522.234)"
              fill="none" stroke="#121212" stroke-miterlimit="2.613" stroke-width="0.5"/>
        <line id="Line_462" data-name="Line 462" x2="1.701" transform="translate(308.967 528.92)" fill="none"
              stroke="#121212" stroke-miterlimit="2.613" stroke-width="0.5"/>
        <path id="Path_5845" data-name="Path 5845"
              d="M76.563,632.292l-3.743,3.385c-.023.02-.046.038-.071.057a1.975,1.975,0,0,0-1.986-3.121l.086-.043,4.657-1.944c.716-.3,4.694-2.147,4.847-1.906S77.139,631.771,76.563,632.292Z"
              transform="translate(247.196 -101.831)" fill="#121212" fill-rule="evenodd"/>
        <path id="Path_5846" data-name="Path 5846"
              d="M75.871,632.285l-3.743,3.385c-.023.02-.046.038-.071.057a1.973,1.973,0,0,0,.091-2.247l7.514-4.767C79.809,628.958,76.447,631.765,75.871,632.285Z"
              transform="translate(247.889 -101.823)" fill="#8d8c8c" fill-rule="evenodd"/>
        <path id="Path_5855" data-name="Path 5855"
              d="M54.652,631.2a1.749,1.749,0,0,1,.869,3.266,1.56,1.56,0,0,1-.15.078,1.751,1.751,0,0,1-2.349-2.236,1.775,1.775,0,0,1,.306-.5,1.991,1.991,0,0,1,.177-.178,1.747,1.747,0,0,1,1.146-.426Zm1.236.513a1.749,1.749,0,1,0,.512,1.235A1.744,1.744,0,0,0,55.887,631.711Z"
              transform="translate(263.85 -100.266)" fill="none" stroke="#121212" stroke-width="0.5"
              fill-rule="evenodd"/>
    </g>
</svg>
