<svg xmlns="http://www.w3.org/2000/svg" width="3.699" height="17.225" viewBox="0 0 3.699 17.225">
    <g id="_000_line" data-name="000 line" transform="translate(-432.634 -489.651)">
        <g id="Path_6363" data-name="Path 6363" transform="translate(432.611 489.594)" fill="none">
            <path d="M1.873.057a1.825,1.825,0,0,1,1.849,1.82,1.849,1.849,0,0,1-3.7,0A1.825,1.825,0,0,1,1.873.057Z"
                  stroke="none"/>
            <path d="M 1.872710227966309 0.8073692321777344 C 1.256230115890503 0.8073692321777344 0.773320198059082 1.277589321136475 0.773320198059082 1.877869367599487 C 0.773320198059082 2.484079360961914 1.266500234603882 2.977269172668457 1.872710227966309 2.977269172668457 C 2.478920221328735 2.977269172668457 2.972100257873535 2.484079360961914 2.972100257873535 1.877869367599487 C 2.972100257873535 1.277589321136475 2.489190101623535 0.8073692321777344 1.872710227966309 0.8073692321777344 M 1.872710227966309 0.05736923217773438 C 2.894100189208984 0.05736923217773438 3.722100257873535 0.8564794063568115 3.722100257873535 1.877869367599487 C 3.722100257873535 2.899259328842163 2.894100189208984 3.727269411087036 1.872710227966309 3.727269411087036 C 0.8513202667236328 3.727269411087036 0.02332019805908203 2.899259328842163 0.02332019805908203 1.877869367599487 C 0.02332019805908203 0.8564794063568115 0.8513202667236328 0.05736923217773438 1.872710227966309 0.05736923217773438 Z"
                  stroke="none" fill="#121212"/>
        </g>
        <g id="Group_1004" data-name="Group 1004" transform="translate(432.634 496.429)">
            <g id="Path_6363-2" data-name="Path 6363" transform="translate(-0.023 -0.057)" fill="none">
                <path d="M1.873.057a1.825,1.825,0,0,1,1.849,1.82,1.849,1.849,0,0,1-3.7,0A1.825,1.825,0,0,1,1.873.057Z"
                      stroke="none"/>
                <path d="M 1.872710227966309 0.8073692321777344 C 1.256230115890503 0.8073692321777344 0.773320198059082 1.277589321136475 0.773320198059082 1.877869367599487 C 0.773320198059082 2.484079360961914 1.266500234603882 2.977269172668457 1.872710227966309 2.977269172668457 C 2.478920221328735 2.977269172668457 2.972100257873535 2.484079360961914 2.972100257873535 1.877869367599487 C 2.972100257873535 1.277589321136475 2.489190101623535 0.8073692321777344 1.872710227966309 0.8073692321777344 M 1.872710227966309 0.05736923217773438 C 2.894100189208984 0.05736923217773438 3.722100257873535 0.8564794063568115 3.722100257873535 1.877869367599487 C 3.722100257873535 2.899259328842163 2.894100189208984 3.727269411087036 1.872710227966309 3.727269411087036 C 0.8513202667236328 3.727269411087036 0.02332019805908203 2.899259328842163 0.02332019805908203 1.877869367599487 C 0.02332019805908203 0.8564794063568115 0.8513202667236328 0.05736923217773438 1.872710227966309 0.05736923217773438 Z"
                      stroke="none" fill="#121212"/>
            </g>
        </g>
        <g id="Group_1005" data-name="Group 1005" transform="translate(432.634 503.207)">
            <g id="Path_6363-3" data-name="Path 6363" transform="translate(-0.023 -0.057)" fill="none">
                <path d="M1.873.057a1.825,1.825,0,0,1,1.849,1.82,1.849,1.849,0,0,1-3.7,0A1.825,1.825,0,0,1,1.873.057Z"
                      stroke="none"/>
                <path d="M 1.872710227966309 0.8073692321777344 C 1.256230115890503 0.8073692321777344 0.773320198059082 1.277589321136475 0.773320198059082 1.877869367599487 C 0.773320198059082 2.484079360961914 1.266500234603882 2.977269172668457 1.872710227966309 2.977269172668457 C 2.478920221328735 2.977269172668457 2.972100257873535 2.484079360961914 2.972100257873535 1.877869367599487 C 2.972100257873535 1.277589321136475 2.489190101623535 0.8073692321777344 1.872710227966309 0.8073692321777344 M 1.872710227966309 0.05736923217773438 C 2.894100189208984 0.05736923217773438 3.722100257873535 0.8564794063568115 3.722100257873535 1.877869367599487 C 3.722100257873535 2.899259328842163 2.894100189208984 3.727269411087036 1.872710227966309 3.727269411087036 C 0.8513202667236328 3.727269411087036 0.02332019805908203 2.899259328842163 0.02332019805908203 1.877869367599487 C 0.02332019805908203 0.8564794063568115 0.8513202667236328 0.05736923217773438 1.872710227966309 0.05736923217773438 Z"
                      stroke="none" fill="#121212"/>
            </g>
        </g>
    </g>
</svg>
