<svg xmlns="http://www.w3.org/2000/svg" width="17.445" height="27.548" viewBox="0 0 17.445 27.548">
    <path id="_" data-name="?"
          d="M533.861,130.8c-.013-.441-.019-.776-.019-1a9.205,9.205,0,0,1,.555-3.374,7.578,7.578,0,0,1,1.312-2.163,25,25,0,0,1,2.39-2.315,11.212,11.212,0,0,0,2.245-2.428,3.934,3.934,0,0,0,.518-1.987,4.643,4.643,0,0,0-1.514-3.425,5.111,5.111,0,0,0-3.709-1.475,4.973,4.973,0,0,0-3.544,1.337,7.077,7.077,0,0,0-1.867,4.188l-3.405-.416a8.869,8.869,0,0,1,2.737-5.815,8.761,8.761,0,0,1,6.023-2.018,9,9,0,0,1,6.326,2.163,6.867,6.867,0,0,1,2.359,5.241,6.621,6.621,0,0,1-.832,3.273,15.483,15.483,0,0,1-3.255,3.645,16.564,16.564,0,0,0-2.126,2.12,4.624,4.624,0,0,0-.738,1.57,13.236,13.236,0,0,0-.277,2.876Zm-.6,6.66v-3.784h3.784v3.784Z"
          transform="translate(-526.823 -109.91)" fill="#1a1818" fill-rule="evenodd"/>
</svg>
