<svg xmlns="http://www.w3.org/2000/svg" width="18" height="22" viewBox="0 0 18 22">
    <g id="bookmark_Line" data-name="bookmark Line" transform="translate(-94.453 -696.493)" fill="none"
       fill-rule="evenodd">
        <path d="M96.425,696.634c-1.736.492-1.969,1.825-1.968,4.215v14.506c0,2.856-.189,3.626,1.78,2.8.656-.272,6.474-4.556,7.317-4.556.967,0,6.347,4.159,7.01,4.5,2.389,1.212,1.832-.122,1.832-6.549v-8.032c0-1.871.282-4.571-.558-5.837-.983-1.481-2.562-1.139-4.518-1.139C105.725,696.532,97.262,696.4,96.425,696.634Z"
              stroke="none"/>
        <path d="M 101.1174011230469 697.9934692382813 L 101.1174087524414 697.9934692382813 C 97.78445434570313 697.9934692382813 96.97949981689453 698.0621948242188 96.79326629638672 698.0889892578125 C 96.35868072509766 698.2197875976563 96.26601409912109 698.3768310546875 96.18445587158203 698.5824584960938 C 95.9840087890625 699.0878295898438 95.95722198486328 700.0115356445313 95.95743560791016 700.848876953125 L 95.95743560791016 715.3551025390625 C 95.95743560791016 715.6032104492188 95.95603942871094 715.8357543945313 95.95472717285156 716.0531005859375 C 95.95368194580078 716.2259521484375 95.95259857177734 716.4052124023438 95.95272064208984 716.5782470703125 C 96.36520385742188 716.310791015625 97.0322265625 715.8560180664063 97.59916687011719 715.4694213867188 C 101.7165069580078 712.662109375 102.7183380126953 712.0943603515625 103.5544662475586 712.0943603515625 C 104.4786224365234 712.0943603515625 105.693229675293 712.8021240234375 109.7431716918945 715.700439453125 C 110.1716384887695 716.007080078125 110.6389465332031 716.3414916992188 110.9498443603516 716.5559692382813 C 110.9570922851563 716.0028686523438 110.9440002441406 715.3004760742188 110.9311370849609 714.6107177734375 C 110.9155578613281 713.7750854492188 110.8961715698242 712.735107421875 110.8961715698242 711.5404052734375 L 110.8961715698242 703.5079956054688 C 110.8961715698242 703.1262817382813 110.9068603515625 702.7280883789063 110.9181671142578 702.3064575195313 C 110.9403762817383 701.478759765625 110.9633483886719 700.6228637695313 110.9037322998047 699.8734741210938 C 110.8305206298828 698.953125 110.6583557128906 698.606201171875 110.5879516601563 698.5000610351563 C 110.3804473876953 698.1874389648438 110.173698425293 697.9976196289063 109.054573059082 697.9976196289063 C 108.8182983398438 697.9976196289063 108.5632858276367 698.005126953125 108.2933197021484 698.0131225585938 C 107.9830780029297 698.0223388671875 107.6622772216797 698.0317993164063 107.3200531005859 698.0317993164063 C 107.0026626586914 698.0317993164063 106.4278182983398 698.026611328125 105.7000503540039 698.0201416015625 C 104.4473724365234 698.0089111328125 102.7317657470703 697.9935302734375 101.1174011230469 697.9934692382813 M 101.1174087524414 696.4934692382813 C 103.6732635498047 696.4934692382813 106.4706192016602 696.5317993164063 107.3200531005859 696.5317993164063 C 107.9381408691406 696.5317993164063 108.5185852050781 696.4976196289063 109.054573059082 696.4976196289063 C 110.2141952514648 696.4976196289063 111.1654510498047 696.65771484375 111.8377075195313 697.6705322265625 C 112.6781158447266 698.9373779296875 112.3961715698242 701.6373901367188 112.3961715698242 703.5079956054688 L 112.3961715698242 711.5404052734375 C 112.3961715698242 716.5869140625 112.7397689819336 718.4934692382813 111.731201171875 718.4934692382813 C 111.4551239013672 718.4934692382813 111.0775527954102 718.3504638671875 110.5641021728516 718.0899047851563 C 109.9009704589844 717.7532958984375 104.5212860107422 713.5943603515625 103.5544662475586 713.5943603515625 C 102.7119827270508 713.5943603515625 96.89395904541016 717.8788452148438 96.23779296875 718.150634765625 C 95.74530029296875 718.3583374023438 95.38794708251953 718.4659423828125 95.12870788574219 718.4659423828125 C 94.35123443603516 718.4659423828125 94.45743560791016 717.4971923828125 94.45743560791016 715.3551025390625 L 94.45743560791016 700.848876953125 C 94.45680236816406 698.4583740234375 94.68930053710938 697.1258544921875 96.42531585693359 696.6338500976563 C 96.81638336181641 696.5230102539063 98.87381744384766 696.4934692382813 101.1174087524414 696.4934692382813 Z"
              stroke="none" fill="#121212"/>
    </g>
</svg>
