<svg xmlns="http://www.w3.org/2000/svg" width="14.828" height="18.314" viewBox="0 0 14.828 18.314">
    <g id="delete" transform="translate(-206 -434.358)">
        <g id="Path_7392" data-name="Path 7392" transform="translate(207.76 439)" fill="none">
            <path d="M-.76.019h13l-1,11.553a2.052,2.052,0,0,1-2,2.1h-7a2.052,2.052,0,0,1-2-2.1Z" stroke="none"/>
            <path d="M 0.05747413635253906 0.7694559097290039 L 0.9869556427001953 11.5075855255127 L 0.98974609375 11.53986549377441 L 0.98974609375 11.572265625 C 0.98974609375 12.31693649291992 1.550496101379395 12.922776222229 2.23974609375 12.922776222229 L 9.23974609375 12.922776222229 C 9.928996086120605 12.922776222229 10.48974609375 12.31693649291992 10.48974609375 11.572265625 L 10.48974609375 11.53986549377441 L 10.4925365447998 11.5075855255127 L 11.42201805114746 0.7694559097290039 L 0.05747413635253906 0.7694559097290039 M -0.76025390625 0.01945590972900391 L 12.23974609375 0.01945590972900391 L 11.23974609375 11.572265625 C 11.23974609375 12.73234558105469 10.34431648254395 13.672776222229 9.23974609375 13.672776222229 L 2.23974609375 13.672776222229 C 1.135175704956055 13.672776222229 0.23974609375 12.73234558105469 0.23974609375 11.572265625 L -0.76025390625 0.01945590972900391 Z"
                  stroke="none" fill="#121212"/>
        </g>
        <g id="Path_7393" data-name="Path 7393" transform="translate(206.672 436)" fill="none">
            <path d="M-.172,0,13.656.029a.485.485,0,0,1,.5.468V3.3a.485.485,0,0,1-.5.468L-.172,3.74a.485.485,0,0,1-.5-.468V.468A.485.485,0,0,1-.172,0Z"
                  stroke="none"/>
            <path d="M 0.07812786102294922 0.7505273818969727 L 0.07812786102294922 2.990830898284912 L 13.40624713897705 3.019007205963135 L 13.40624713897705 0.778700590133667 L 0.07812786102294922 0.7505273818969727 M -0.1718721389770508 -4.291534423828125e-06 L 13.65624713897705 0.02922558784484863 C 13.93238735198975 0.02922558784484863 14.15624713897705 0.2385456562042236 14.15624713897705 0.4967555999755859 L 14.15624713897705 3.301995754241943 C 14.15624713897705 3.560205698013306 13.93238735198975 3.769535541534424 13.65624713897705 3.769535541534424 L -0.1718721389770508 3.740305662155151 C -0.4480123519897461 3.740305662155151 -0.6718721389770508 3.530985593795776 -0.6718721389770508 3.272775650024414 L -0.6718721389770508 0.4675357341766357 C -0.6718721389770508 0.2093255519866943 -0.4480123519897461 -4.291534423828125e-06 -0.1718721389770508 -4.291534423828125e-06 Z"
                  stroke="none" fill="#121212"/>
        </g>
        <path id="Path_7394" data-name="Path 7394" d="M4249.32,11623.266l.742-1.532h5.185l1,1.69"
              transform="translate(-4039.345 -11187)" fill="none" stroke="#121212" stroke-linecap="round"
              stroke-linejoin="round" stroke-width="0.75"/>
        <path id="Path_7395" data-name="Path 7395" d="M4252.742,11629.7v6.094" transform="translate(-4039 -11187)"
              fill="none" stroke="#121212" stroke-linecap="round" stroke-width="0.75"/>
        <path id="Path_7396" data-name="Path 7396" d="M4252.742,11629.7v4.156"
              transform="translate(-4041.662 -11186.031)" fill="none" stroke="#121212" stroke-linecap="round"
              stroke-width="0.75"/>
        <path id="Path_7397" data-name="Path 7397" d="M4252.742,11629.7v4.156"
              transform="translate(-4036.338 -11186.031)" fill="none" stroke="#121212" stroke-linecap="round"
              stroke-width="0.75"/>
    </g>
</svg>
