<svg xmlns="http://www.w3.org/2000/svg" width="28.516" height="27.335" viewBox="0 0 28.516 27.335">
    <path id="Dislike"
          d="M154.377,347.407c-.145-4.552,0-3.945-7.847-3.87-4.662.044-2.973.6-6.988,1.643-.874.227-1.71.285-2.53.514L137,357.173c-.038,2.906.578.866,3.794,3.013,3.115,2.079,4.365,5.23,5.073,8.828.311,1.581,1.1,2.423,2.346,1.221,1.686-1.623.835-5.118.262-7.532-.989-4.166,2.626-2.462,5.957-2.893,1.765-.228,1.5-1.375,1.36-2.873-.13-1.385,1.2-1.49,1.246-3.254a2.684,2.684,0,0,0-.588-1.634c-.774-1.046-.611-.3-.394-1.688.273-1.75-.645-2.374-1.681-2.956ZM136.1,358.6c.3-1.33.129-9.353.116-11.329-.016-2.308-1.147-2.022-3.282-2.014-5.23.019-4.348-.654-4.348,6.85,0,7.744-.758,7.777,3.383,7.776C133.778,359.882,135.74,360.174,136.1,358.6Z"
          transform="translate(-128.525 -343.469)" fill="#121212" fill-rule="evenodd"/>
</svg>
