<svg xmlns="http://www.w3.org/2000/svg" width="28.574" height="28.078" viewBox="0 0 28.574 28.078">
    <path id="Dislike_line" data-name="Dislike line"
          d="M154.186,347.407c-.145-4.552,0-3.945-7.847-3.87-4.662.044-2.973.6-6.988,1.643-.874.227-1.71.285-2.53.514l-.01,11.479c-.038,2.906.578.866,3.794,3.013,3.115,2.079,4.365,5.23,5.073,8.828.311,1.581,1.1,2.423,2.346,1.221,1.686-1.623.835-5.118.262-7.532-.989-4.166,2.626-2.462,5.957-2.893,1.765-.228,1.5-1.375,1.36-2.873-.13-1.385,1.2-1.49,1.246-3.254a2.684,2.684,0,0,0-.588-1.634c-.774-1.046-.611-.3-.394-1.688.273-1.75-.645-2.374-1.681-2.956Zm-17.375,11.2c.3-1.33.044-9.421.031-11.4-.016-2.308-1.291-2.019-3.425-2.012-5.23.019-4.348-.654-4.348,6.85,0,7.744-.758,7.777,3.383,7.776C134.266,359.823,136.456,360.181,136.812,358.606Z"
          transform="translate(-128.652 -343.111)" fill="none" stroke="#1a1818" stroke-miterlimit="2.613"
          stroke-width="0.75" fill-rule="evenodd"/>
</svg>
