<svg xmlns="http://www.w3.org/2000/svg" width="20.586" height="21.967" viewBox="0 0 20.586 21.967">
    <path id="T"
          d="M12.813-24.579l-2.18,8.261-1.45-.059c.335-4.461-.955-5.762-1.679-6.062-.87-.39-2.355-.269-3.118,1.9L.38-5.791C.24-4.568,1.672-4.354,2.373-4.324l1.091.074v1.568H-7.03V-4.25l1.406-.074a2.077,2.077,0,0,0,1.5-.54c.3-.33.451-.866,4.936-16.35-.612-1.9-3.188-1.037-3.867-.408A13.2,13.2,0,0,0-5.96-16.557H-7.773l1.98-8.091Z"
          transform="translate(7.773 24.648)" fill="#121212"/>
</svg>
