<svg xmlns="http://www.w3.org/2000/svg" width="1110.316" height="221.381" viewBox="0 0 1110.316 221.381"><defs><style>.a{fill:#a7ff99;}</style></defs><path class="a" d="M425.815,126l16.822,6.9,10.935,10.934,8.411,14.3,7.57,15.14,5.888,20.187,6.729,19.346,5.047,23.551,3.021,24.567,4.549,20.853,9.252,21.028,10.093,15.14,10.934,14.3,13.458,9.252,9.183,4.862,6.945,1.026h869.573a20.344,20.344,0,0,0,3.232-.7c2.1-.6,3.973-2.614,7.842-6.065a103.948,103.948,0,0,0,7.635-7.74l6.729-7.57,5.888-12.617,5.047-16.822,2.249-11.377,2.356-10.307,1.573-10.7s1.429-8.856,1.745-12.677.313-3.8.738-6.735-.215-2.4.919-6.521.928-4.846.928-4.846l1.391-6.664,2.609-8.69,2.091-10.281,2.032-8.366,4.594-15.7,6.125-13.017,5.743-9.188,2.439-4,2.681-3.619,2.949-3.887,2.614-2.681,3.485-2.815,4.424-3.217,3.887-3.217,3.083-2.279,2.547-1.743,3.217-1.475,4.021-2.011,3.887-2.145,1.206-1.072Z" transform="translate(-425.815 -126)"/></svg>