<svg xmlns="http://www.w3.org/2000/svg" width="43.5" height="17" viewBox="0 0 43.5 17">
    <g id="GeyreAsl" transform="translate(-316.635 -2195.521)">
        <path id="Path_7121" data-name="Path 7121"
              d="M-2596.132,53.074h-6.163a3.389,3.389,0,0,0-3.284,3.437c0,.006,0,.967,0,3.687"
              transform="translate(2923.1 2143.086)" fill="none" stroke="#121212" stroke-miterlimit="2.613"
              stroke-width="1" fill-rule="evenodd"/>
        <path id="Path_7122" data-name="Path 7122" d="M-2230.95,53.074h7.1a3.389,3.389,0,0,1,3.285,3.437v5.726"
              transform="translate(2580.203 2143.086)" fill="none" stroke="#121212" stroke-miterlimit="2.613"
              stroke-width="1" fill-rule="evenodd"/>
        <path id="Path_7123" data-name="Path 7123"
              d="M-2355.3,120.575h.153v0a5.119,5.119,0,0,0,.847-.051,1.869,1.869,0,0,0,1.173-.857,2.644,2.644,0,0,1-.632-.816,1.965,1.965,0,0,1-.2-.837c0-1,.828-1.9,2.483-2.708a1.857,1.857,0,0,1,.851-.206.78.78,0,0,1,.691.272.706.706,0,0,1,.02.684c-.043.218-.392.5-1.043.845a3.031,3.031,0,0,0-.628.416.8.8,0,0,0-.275.4.3.3,0,0,0,.126.313,1.062,1.062,0,0,0,.569.148,1.72,1.72,0,0,0,.541-.119c.228-.078.467-.173.71-.276s.486-.214.714-.334.408-.21.529-.284c.522-.206.867-.247,1.036-.12a.885.885,0,0,1,.262.713,1.372,1.372,0,0,1-.392.931,2.724,2.724,0,0,1-.549.42c-.208.119-.424.235-.651.338s-.451.206-.679.3-.443.2-.659.317a3.4,3.4,0,0,0-1.083.626,9.5,9.5,0,0,1-1.722,1.413,4.2,4.2,0,0,1-2.2.457v-.009a1.959,1.959,0,0,1-1.859-1.079,2.01,2.01,0,0,1-.51.515,2.9,2.9,0,0,1-.663.338,3.893,3.893,0,0,1-.753.181,5.453,5.453,0,0,1-.592.051v0h-.824a2.563,2.563,0,0,0-1.667.907,9.012,9.012,0,0,1-4.763,2.707,1.391,1.391,0,0,1-.168.017c-.063,0-.118.008-.165.008-.576,0-.863-.148-.863-.449,0-.272.353-.555,1.071-.82a7.225,7.225,0,0,0,3.622-2.175c.327-.345.612-.647.863-.907s.459-.453.62-.589a3.286,3.286,0,0,1,1-.5,4.433,4.433,0,0,1,1.106-.184v-.006a2.723,2.723,0,0,0,1.11-.284,2.846,2.846,0,0,0,.777-.573,4.413,4.413,0,0,0,.529-.63,2.316,2.316,0,0,0,.275-.532.524.524,0,0,1,.435-.326.732.732,0,0,1,.518.177.906.906,0,0,1,.219.643,2.013,2.013,0,0,1-.094.738.562.562,0,0,0,.023.532.45.45,0,0,0,.306.2,1.747,1.747,0,0,0,.451.059Z"
              transform="translate(2705.527 2086.318)" fill="#121212" fill-rule="evenodd"/>
        <path id="Path_7124" data-name="Path 7124"
              d="M-2201.177,76.183a1.042,1.042,0,0,1,.707-.421.655.655,0,0,1,.564.367,1.029,1.029,0,0,1,.13.345,1.124,1.124,0,0,1,.027.34,2.251,2.251,0,0,1-.385.931.812.812,0,0,1-.676.354.757.757,0,0,1-.842-.868A1.588,1.588,0,0,1-2201.177,76.183Z"
              transform="translate(2553.49 2122.31)" fill="#121212" fill-rule="evenodd"/>
        <path id="Path_7125" data-name="Path 7125"
              d="M-2290.231,218.539a6.353,6.353,0,0,1,3.3-.8,5.217,5.217,0,0,1,1.376.132c.457.161.688.346.688.556,0,.128-.087.227-.264.3a2.229,2.229,0,0,1-.7.115,11.947,11.947,0,0,0-2.023.313,10.487,10.487,0,0,0-1.912.663v-.012a.855.855,0,0,1-.412.107.524.524,0,0,1-.6-.589.6.6,0,0,1,.144-.379A2.521,2.521,0,0,1-2290.231,218.539Z"
              transform="translate(2635.084 1992.581)" fill="#121212" fill-rule="evenodd"/>
        <path id="Path_7126" data-name="Path 7126"
              d="M-2616.249,59.1a5.97,5.97,0,0,1,.673-2.055,10.791,10.791,0,0,1,1.426-2.067,9.238,9.238,0,0,1,.777-.775c.331-.3.733-.644,1.207-1.038a4.529,4.529,0,0,1,.565-.39,3.219,3.219,0,0,1,.554-.271.789.789,0,0,1,.2-.049,1.561,1.561,0,0,1,.175-.012c.263,0,.4.1.4.312a.976.976,0,0,1-.251.529,5.448,5.448,0,0,1-.709.722,13.955,13.955,0,0,0-1.131,1.112c-.434.468-.865.948-1.283,1.436a6.7,6.7,0,0,0-.765,1.251,2.757,2.757,0,0,0-.275,1.153,2.171,2.171,0,0,0,.339,1.177,3.29,3.29,0,0,0,.956.96,4.934,4.934,0,0,0,1.343.574,6.351,6.351,0,0,0,1.621.2,6.868,6.868,0,0,0,3.537-.927,4.746,4.746,0,0,0,1.179-.894,8.1,8.1,0,0,0,1-1.255,8.319,8.319,0,0,0,.745-1.6,10.934,10.934,0,0,0,.458-1.743c.044-.3.08-.611.1-.931s.028-.624.028-.931c0-.246,0-.574-.008-.985s-.016-.866-.04-1.37c-.052-.624-.1-1.19-.139-1.694s-.072-.956-.092-1.358q-.06-1.563.92-1.563a.664.664,0,0,1,.613.365,2.351,2.351,0,0,1,.239.993c.048.537.1,1.071.155,1.6s.112,1.067.159,1.592c.107.787.7,1.181,1.781,1.181a1.956,1.956,0,0,0,1.079-.291,1.259,1.259,0,0,0,.549-.841q.066-.5.49-.5c.2,0,.327.139.375.422a3.61,3.61,0,0,0,.259.751.937.937,0,0,0,.406.439,1.742,1.742,0,0,0,.8.275,2.77,2.77,0,0,1,.188-.488,6.77,6.77,0,0,1,.478-.833,9.752,9.752,0,0,1,.94-1.251,8.053,8.053,0,0,1,1.1-1.046,7.083,7.083,0,0,1,1.012-.685,1.821,1.821,0,0,1,.729-.25,1.014,1.014,0,0,1,.693.148,1.336,1.336,0,0,1,.486.619,3.693,3.693,0,0,1,.156.554,2.788,2.788,0,0,1,.056.554,3.075,3.075,0,0,1-.02.324c-.012.111-.024.217-.04.312a4.333,4.333,0,0,1-1.306,2.51,3.793,3.793,0,0,1-1.45.956,5.571,5.571,0,0,1-1.948.308v.156a7.515,7.515,0,0,0,.076.943c.052.365.128.763.227,1.2.016.053.032.107.044.16a.821.821,0,0,1,.016.176c0,.357-.115.537-.35.537q-.245,0-.538-.381a3.028,3.028,0,0,1-.426-.788,3.172,3.172,0,0,1-.167-.874q0-.418-.012-.714c-.008-.2-.016-.336-.024-.414a1.628,1.628,0,0,1-1.131-.39,3.029,3.029,0,0,1-.689-.919,1.972,1.972,0,0,1-2.055,1.305v0h-.183a4.216,4.216,0,0,1-.61-.036c-.076-.025-.151-.049-.223-.07s-.147-.049-.231-.074a1.977,1.977,0,0,1-.37-.172,1.941,1.941,0,0,1-.271-.213,12.3,12.3,0,0,1-1.53,5.673,8.5,8.5,0,0,1-3.652,3.4,7.477,7.477,0,0,1-1.633.529,9.166,9.166,0,0,1-1.88.193,7.661,7.661,0,0,1-4.059-1h.008a3.324,3.324,0,0,1-1.876-2.995,2.15,2.15,0,0,1,.048-.468Zm23.174-6.863a3.716,3.716,0,0,0,.912-.82,2.953,2.953,0,0,0,.522-1.005,1.015,1.015,0,0,0,.044-.242c0-.078,0-.148,0-.205,0-.16-.052-.238-.152-.238-.171,0-.438.164-.8.492a5.161,5.161,0,0,0-.924,1.038,9.387,9.387,0,0,0-.781,1.415,1.617,1.617,0,0,0,.538-.115A4.226,4.226,0,0,0-2593.075,52.238Z"
              transform="translate(2932.932 2148.942)" fill="#121212" fill-rule="evenodd"/>
        <path id="Path_7127" data-name="Path 7127"
              d="M-2310.88,48.8c.27-.529.228-.653.81-.66a6.426,6.426,0,0,1-.508,4.345,6.872,6.872,0,0,1-1.2,1.313c-.567.49-1.319-.2-1.917.685-.75,1.111.406,2.375,2.491.669a7.307,7.307,0,0,0,2.51-7.517c-.13-.708-.415-1.461-1.14-1.418-.791.046-1,.67-1.305,1.282-.413.818-.751,1.718-1.116,2.579,0,0-.3.923-.064.885C-2311.854,50.883-2311.106,49.241-2310.88,48.8Z"
              transform="translate(2656.269 2149.309)" fill="#121212" fill-rule="evenodd"/>
        <path id="Path_7128" data-name="Path 7128"
              d="M-2202.609,139.32h4.638a3.389,3.389,0,0,0,3.284-3.437c0-.006,0-3.006,0-5.726"
              transform="translate(2554.321 2072.613)" fill="none" stroke="#121212" stroke-miterlimit="2.613"
              stroke-width="1" fill-rule="evenodd"/>
    </g>
</svg>
