<svg height="26.284" viewBox="0 0 356.031 36.284" width="450" xmlns="http://www.w3.org/2000/svg">
	<path id="title-folder-item" class="head-title-folder"
	d="M375.063,88.1c.679.754,3.878,6.513,3.878,6.513l5.046,8.95,2.486,5.448,2.319,4.349,2.163,2.576,2.477,1.773,4.49,2.312,3.628,1.167H45.519l5.8-1.45,4.9-2.225,2.048-1.344,1.565-1.937,1.054-1.448,2.122-3.492,1.961-3.7,1.769-3.5.754-1.8,1.132-3.026.961-2.916,1.1-2.573,1.372-2.059,2.458-2.165L77.2,85.949a24.4,24.4,0,0,1,3.249-.88,28.225,28.225,0,0,1,5.816,0s276.861-.436,277.326.162c0,0,.6-.148,5.958.718,3.379.546,4.372.9,5.024,1.612A4.514,4.514,0,0,1,375.063,88.1Z"
	transform="translate(-45.519 -84.901)"/>
</svg>