<svg xmlns="http://www.w3.org/2000/svg" width="25" height="22" viewBox="0 0 25 22">
    <g id="Heart_line" data-name="Heart line" transform="translate(-417.342 -339.366)" fill="none"
       stroke-linecap="round" stroke-linejoin="round" fill-rule="evenodd">
        <path d="M429.842,361.366s-7.093-4.393-10.944-10.728.254-10.268,3.6-11.085a6.5,6.5,0,0,1,7.347,3.423,6.5,6.5,0,0,1,7.347-3.423c3.344.817,7.448,4.751,3.6,11.085S429.842,361.366,429.842,361.366Z"
              stroke="none"/>
        <path d="M 429.8432922363281 359.5653991699219 C 431.7433471679688 358.2549438476563 436.619873046875 354.6051635742188 439.5050048828125 349.8595581054688 C 440.2342224121094 348.6597900390625 440.6701354980469 347.5150146484375 440.8005676269531 346.4571228027344 C 440.9076843261719 345.5885314941406 440.8074340820313 344.7748718261719 440.502685546875 344.0387268066406 C 439.7778930664063 342.2881469726563 438.072998046875 341.3132934570313 436.8331298828125 341.0104064941406 C 436.4416198730469 340.9147338867188 436.043701171875 340.8662414550781 435.6504211425781 340.8662414550781 C 433.5418701171875 340.8662414550781 431.820556640625 342.237548828125 431.2099609375 343.5921936035156 C 430.9675598144531 344.1300048828125 430.4324035644531 344.4757995605469 429.8424987792969 344.4757995605469 C 429.2525634765625 344.4757995605469 428.7174072265625 344.1300354003906 428.4749755859375 343.5922241210938 C 427.8643188476563 342.2375793457031 426.1430053710938 340.8662414550781 424.0346069335938 340.8662414550781 C 423.6413269042969 340.8662414550781 423.243408203125 340.9147338867188 422.851806640625 341.0104370117188 C 421.6118774414063 341.3133544921875 419.9067687988281 342.2882995605469 419.1819763183594 344.0390930175781 C 418.8772583007813 344.7752075195313 418.7770690917969 345.5887756347656 418.8842163085938 346.457275390625 C 419.0147399902344 347.51513671875 419.45068359375 348.6597900390625 420.179931640625 349.8594055175781 C 423.0573425292969 354.5923156738281 427.9420776367188 358.2519226074219 429.8432922363281 359.5653991699219 M 429.8424682617188 361.3662414550781 C 429.8424682617188 361.3662414550781 422.749267578125 356.9730834960938 418.8982238769531 350.6386413574219 C 415.0473022460938 344.3038940429688 419.1517944335938 340.3702392578125 422.4958190917969 339.5532836914063 C 423.0193481445313 339.4253540039063 423.5346984863281 339.3662414550781 424.0346069335938 339.3662414550781 C 426.7278747558594 339.3662414550781 428.9877014160156 341.0796508789063 429.8424682617188 342.9757995605469 C 430.6970825195313 341.0797729492188 432.9573669433594 339.3662414550781 435.6504211425781 339.3662414550781 C 436.1505126953125 339.3662414550781 436.6654968261719 339.4253234863281 437.189208984375 339.5532836914063 C 440.5333251953125 340.3702392578125 444.6370849609375 344.3038940429688 440.7868041992188 350.6386413574219 C 436.9357604980469 356.9730834960938 429.8424682617188 361.3662414550781 429.8424682617188 361.3662414550781 Z"
              stroke="none" fill="#121212"/>
    </g>
</svg>
