<svg xmlns="http://www.w3.org/2000/svg" width="202.609" height="124.394" viewBox="0 0 202.609 124.394">
    <g id="icon_financial_services" data-name="icon financial services" transform="translate(-124.252 -669.343)">
        <path id="Path_44" data-name="Path 44"
              d="M125.252,698.874h20.382a9.728,9.728,0,0,1,9.7,9.7v43.738a9.728,9.728,0,0,1-9.7,9.7H125.252"
              transform="translate(0 18.717)" fill="none" stroke="#984040" stroke-linecap="round"
              stroke-linejoin="round" stroke-width="2"/>
        <path id="Path_45" data-name="Path 45"
              d="M142.618,746.909s15.643-.773,22.574,2.563,43.375,17.71,49.279,16.426,67.758-32.6,76.228-38.244,10.523-16.94-.257-17.451-45.429,15.4-57.748,18.478c0,0-32.339-.255-35.676,0s-7.7,8.728-7.7,8.728"
              transform="translate(12.348 26.764)" fill="none" stroke="#984040" stroke-linecap="round"
              stroke-linejoin="round" stroke-width="2"/>
        <path id="Path_46" data-name="Path 46"
              d="M142.833,705.666s16.046-5.469,31.446-.849,22.843,11.293,32.6,11.293,27.976-3.85,32.339.77,1.3,14.409,1.3,14.409"
              transform="translate(12.501 21.624)" fill="none" stroke="#984040" stroke-linecap="round"
              stroke-linejoin="round" stroke-width="2"/>
        <path id="Path_47" data-name="Path 47"
              d="M176.18,666.419A17.486,17.486,0,1,1,158.7,683.9,17.486,17.486,0,0,1,176.18,666.419Z"
              transform="translate(58.802 3.924)" fill="none" stroke="#984040" stroke-linecap="round"
              stroke-linejoin="round" stroke-width="2"/>
        <path id="Path_48" data-name="Path 48"
              d="M169.134,679.309a14.131,14.131,0,0,1-2.495-1.083,3.269,3.269,0,0,1-1.018-1.249,4.268,4.268,0,0,1-.346-1.815,3.686,3.686,0,0,1,1.494-3.022,5.055,5.055,0,0,1,1.714-.82,8.231,8.231,0,0,1,2.236-.287,7.667,7.667,0,0,1,4.226.953,3.7,3.7,0,0,1,1.6,3M169.11,679.3a20.446,20.446,0,0,0,2.705.833,23.081,23.081,0,0,1,2.354.729,6.126,6.126,0,0,1,1.658.905,3.4,3.4,0,0,1,.979,1.22,3.948,3.948,0,0,1,.323,1.641,4.7,4.7,0,0,1-.414,1.961,4.493,4.493,0,0,1-1.169,1.571A5.657,5.657,0,0,1,173.7,689.2a7.45,7.45,0,0,1-2.443.378q-5.741,0-6.271-4.711"
              transform="translate(63.926 7.243)" fill="none" stroke="#984040" stroke-linecap="round"
              stroke-linejoin="round" stroke-width="2"/>
        <line id="Line_18" data-name="Line 18" y2="26.968" transform="translate(235.106 674.401)" fill="none"
              stroke="#984040" stroke-linecap="round" stroke-linejoin="round" stroke-width="2"/>
        <path id="Path_49" data-name="Path 49" d="M185.635,676.84h.591m-25,0h.59" transform="translate(61.255 10.989)"
              fill="none" stroke="#984040" stroke-linecap="round" stroke-linejoin="round" stroke-width="4"/>
        <path id="Path_50" data-name="Path 50"
              d="M156.77,706.351v-5.628a2.078,2.078,0,0,1,2.072-2.072h36.336a2.078,2.078,0,0,1,2.072,2.072v6.107a2.078,2.078,0,0,1-2.072,2.072H167.55"
              transform="translate(22.411 18.557)" fill="none" stroke="#984040" stroke-linecap="round"
              stroke-linejoin="round" stroke-width="2"/>
        <path id="Path_51" data-name="Path 51"
              d="M169.6,698.651v5.042m8.112-5.042v5.042m8.112-5.042v5.042m-24.336-5.042v5.042"
              transform="translate(25.765 18.557)" fill="none" stroke="#984040" stroke-linecap="round"
              stroke-linejoin="round" stroke-width="2"/>
        <rect id="Rectangle_25" data-name="Rectangle 25" width="40.479" height="10.25" rx="1.211"
              transform="translate(186.745 706.959)" fill="none" stroke="#984040" stroke-linecap="round"
              stroke-linejoin="round" stroke-width="2"/>
        <path id="Path_52" data-name="Path 52"
              d="M174.02,692.661V697.7m8.112-5.042V697.7m8.112-5.042V697.7m-24.336-5.042V697.7"
              transform="translate(28.909 14.298)" fill="none" stroke="#984040" stroke-linecap="round"
              stroke-linejoin="round" stroke-width="2"/>
        <path id="Rectangle_26" data-name="Rectangle 26"
              d="M1.211,0H39.269a1.211,1.211,0,0,1,1.211,1.211V9.039a1.21,1.21,0,0,1-1.21,1.21H1.21A1.21,1.21,0,0,1,0,9.039V1.211A1.211,1.211,0,0,1,1.211,0Z"
              transform="translate(179.181 696.709)" fill="none" stroke="#984040" stroke-linecap="round"
              stroke-linejoin="round" stroke-width="2"/>
        <path id="Path_53" data-name="Path 53"
              d="M169.6,686.671v5.041m8.112-5.041v5.041m8.112-5.041v5.041m-24.336-5.041v5.041"
              transform="translate(25.765 10.038)" fill="none" stroke="#984040" stroke-linecap="round"
              stroke-linejoin="round" stroke-width="2"/>
        <path id="Path_7466" data-name="Path 7466" d="M0,0H.534" transform="translate(141.937 767.525)" fill="none"
              stroke="#984040" stroke-linecap="round" stroke-width="8"/>
        <path id="Path_54" data-name="Path 54"
              d="M199.135,689.9l32.932,18.341v26.563l17.871-7.926V700.023L213.955,682.1Z"
              transform="translate(52.536 6.79)" fill="none" stroke="#984040" stroke-linecap="round"
              stroke-linejoin="round" stroke-width="2"/>
        <path id="Path_55" data-name="Path 55"
              d="M258.736,703.6l22.579-10.983L247.972,676.8l-21.734,10.612Zm-72.511,3.352,32.245,16.233,22.778-11.079v-.094L210.7,695Z"
              transform="translate(43.356 3.024)" fill="none" stroke="#984040" stroke-linecap="round"
              stroke-linejoin="round" stroke-width="2"/>
        <path id="Path_56" data-name="Path 56"
              d="M209.528,689.395l-12.787,6.5s2.2,2.055-.412,3.479l12.487,6.851a7.04,7.04,0,0,1,7.958-.21l11.543-6.151"
              transform="translate(50.54 11.976)" fill="none" stroke="#984040" stroke-linecap="round"
              stroke-linejoin="round" stroke-width="2"/>
        <path id="Path_57" data-name="Path 57"
              d="M213.407,687.409l10.71-5.571s4.048,2.057,7-.474l12.556,6.9s-3.362,1.528-1.1,4.163l-9.368,4.837"
              transform="translate(62.684 6.266)" fill="none" stroke="#984040" stroke-linecap="round"
              stroke-linejoin="round" stroke-width="2"/>
        <path id="Path_58" data-name="Path 58"
              d="M224.8,684.2c1.875,0,3.395,1.1,3.395,2.464s-1.519,2.464-3.395,2.464-3.4-1.1-3.4-2.464S222.922,684.2,224.8,684.2Z"
              transform="translate(68.368 8.28)" fill="none" stroke="#984040" stroke-linecap="round"
              stroke-linejoin="round" stroke-width="2"/>
        <path id="Path_59" data-name="Path 59"
              d="M206.265,693.043c1.875,0,3.395,1.1,3.395,2.464s-1.519,2.464-3.395,2.464-3.4-1.1-3.4-2.464S204.388,693.043,206.265,693.043Z"
              transform="translate(55.191 14.57)" fill="none" stroke="#984040" stroke-linecap="round"
              stroke-linejoin="round" stroke-width="2"/>
        <path id="Path_60" data-name="Path 60"
              d="M259.675,701.56l23.055-10.848m-97.286,12.227,33.207,17.92L241.8,709.967"
              transform="translate(42.8 12.913)" fill="none" stroke="#984040" stroke-linecap="round"
              stroke-linejoin="round" stroke-width="2"/>
        <path id="Path_61" data-name="Path 61"
              d="M259.675,706.242l23.055-10.848m-97.286,12.227,33.207,17.92L241.8,714.648"
              transform="translate(42.8 16.241)" fill="none" stroke="#984040" stroke-linecap="round"
              stroke-linejoin="round" stroke-width="2"/>
        <path id="Path_62" data-name="Path 62"
              d="M248.925,710.922l23.055-10.846m-71.418,26.186,7.339,3.961,23.152-10.893"
              transform="translate(53.55 19.571)" fill="none" stroke="#984040" stroke-linecap="round"
              stroke-linejoin="round" stroke-width="2"/>
        <line id="Line_20" data-name="Line 20" x2="8.175" y2="4.411" transform="translate(228.245 731.849)" fill="none"
              stroke="#984040" stroke-linecap="round" stroke-linejoin="round" stroke-width="2"/>
        <path id="Path_63" data-name="Path 63"
              d="M163.07,704.642h35.191a2.076,2.076,0,0,1,2.072,2.07v6.107a1.82,1.82,0,0,1-2.012,1.805"
              transform="translate(26.891 22.817)" fill="none" stroke="#984040" stroke-linecap="round"
              stroke-linejoin="round" stroke-width="2"/>
        <line id="Line_21" data-name="Line 21" y2="5.042" transform="translate(202.929 727.458)" fill="none"
              stroke="#984040" stroke-linecap="round" stroke-linejoin="round" stroke-width="2"/>
        <line id="Line_22" data-name="Line 22" y2="5.042" transform="translate(211.041 727.458)" fill="none"
              stroke="#984040" stroke-linecap="round" stroke-linejoin="round" stroke-width="2"/>
        <line id="Line_23" data-name="Line 23" y2="5.042" transform="translate(219.153 727.458)" fill="none"
              stroke="#984040" stroke-linecap="round" stroke-linejoin="round" stroke-width="2"/>
    </g>
</svg>
