<svg xmlns="http://www.w3.org/2000/svg" width="43.5" height="17" viewBox="0 0 43.5 17">
    <g id="Karkardeh" transform="translate(-210.6 -2267.31)">
        <path id="Path_7093" data-name="Path 7093"
              d="M-3006.51,458.506c0,.5.354.755,1.061.755a2.274,2.274,0,0,0,.526-.058,1.436,1.436,0,0,0,.44-.174.654.654,0,0,0,.419-.585q0-.728-1.674-1.543a1.585,1.585,0,0,0-.271.294,2.767,2.767,0,0,0-.259.4,1.982,1.982,0,0,0-.242.912Zm-.913,1.812a1.794,1.794,0,0,1-.674-1.41,3.719,3.719,0,0,1,1.349-2.638,1.061,1.061,0,0,1-.4-.788.969.969,0,0,1,.3-.659.682.682,0,0,1,.493-.216.282.282,0,0,1,.268.145.8.8,0,0,1,.094.365,1.52,1.52,0,0,0,.284.236c.156.108.374.245.658.406a12.709,12.709,0,0,1,1.711,1.3,2.78,2.78,0,0,1,.949,1.85q.013.7-1.011,1.373a3.988,3.988,0,0,1-1.09.473,4.686,4.686,0,0,1-1.164.145A2.622,2.622,0,0,1-3007.424,460.319Z"
              transform="translate(3221.147 1817.056)" fill="#121212" fill-rule="evenodd"/>
        <path id="Path_7094" data-name="Path 7094"
              d="M-2957.9,474.847a1.027,1.027,0,0,1,.337-.742,1.591,1.591,0,0,1,.366-.212,1.055,1.055,0,0,1,.391-.091,4.431,4.431,0,0,0,.76-.05,1.524,1.524,0,0,0,.559-.3,7.36,7.36,0,0,0,.765-.672,4.662,4.662,0,0,0,.773-1.111,2.448,2.448,0,0,0,.263-1.062,1.983,1.983,0,0,0-.424-1.228,2.268,2.268,0,0,1-.506-1.228c0-.493.234-.738.7-.738a1.052,1.052,0,0,1,.81.4,4.708,4.708,0,0,1,.74,1.236,3.561,3.561,0,0,1,.247,1.327,4.4,4.4,0,0,1-1.036,2.737,7.86,7.86,0,0,1-1.773,1.638,4.2,4.2,0,0,1-2.023.838C-2957.586,475.585-2957.9,475.34-2957.9,474.847Z"
              transform="translate(3175.273 1805.348)" fill="#121212" fill-rule="evenodd"/>
        <path id="Path_7095" data-name="Path 7095"
              d="M-2799.059,405.007c-.237.175-.647.447-1.224.818s-1.325.826-2.228,1.367-1.96,1.163-3.16,1.861-2.529,1.465-3.987,2.309a1.142,1.142,0,0,1-.18.03.514.514,0,0,1-.2-.03.211.211,0,0,1-.117-.213.967.967,0,0,1,.129-.413,3.378,3.378,0,0,1,.341-.456,5.412,5.412,0,0,1,.458-.468c.136-.107.506-.345,1.121-.711s1.413-.844,2.408-1.436q1.578-.92,2.818-1.67t2.172-1.35q1-.735,1.481-.5a.519.519,0,0,1,.33.439.909.909,0,0,1-.141.409Z"
              transform="translate(3040.121 1863.222)" fill="#1a1818" fill-rule="evenodd"/>
        <path id="Path_7096" data-name="Path 7096"
              d="M-2925.754,491.56c1.092-.083,1.634-.722,1.634-1.92a4.735,4.735,0,0,0-.069-.78q-.072-.33.049-.448a.4.4,0,0,1,.373-.087.97.97,0,0,1,.426.2,1.726,1.726,0,0,1,.341.382,3.458,3.458,0,0,1,.281,1.6,3.54,3.54,0,0,1-.225,1.215,2.806,2.806,0,0,1-.6.958,2.768,2.768,0,0,1-.947.63,3.292,3.292,0,0,1-1.136.241v0h-.843a2.677,2.677,0,0,0-1.707.912,17.475,17.475,0,0,1-2.934,2.488,7.154,7.154,0,0,1-2.429,1.095,1.656,1.656,0,0,1-.173.017c-.064,0-.12.008-.168.008-.59,0-.883-.149-.883-.452,0-.274.365-.547,1.1-.825a7.756,7.756,0,0,0,1.284-.589,8.365,8.365,0,0,0,1.185-.821,8.04,8.04,0,0,0,.783-.684c.3-.294.614-.614.944-.954s.626-.651.883-.912.47-.456.634-.593a3.388,3.388,0,0,1,1.02-.5,4.645,4.645,0,0,1,1.18-.187Z"
              transform="translate(3154.072 1786.227)" fill="#121212" fill-rule="evenodd"/>
        <path id="Path_7097" data-name="Path 7097"
              d="M-2846.571,522.209a10.555,10.555,0,0,0,2.332-1.675q1.449-1.275,3.331-3.247a11.44,11.44,0,0,1,1.053-1.008,1.33,1.33,0,0,1,.683-.352.851.851,0,0,1,.9.693.91.91,0,0,1-.1.647,1.559,1.559,0,0,1-.493.522q-.747.523-1.477,1.136a18.028,18.028,0,0,0-1.4,1.306,11.8,11.8,0,0,1-3.821,2.841,5.028,5.028,0,0,1-1.287.22c-.387,0-.58-.108-.58-.315C-2847.427,522.748-2847.143,522.491-2846.571,522.209Z"
              transform="translate(3074.214 1761.014)" fill="#121212" fill-rule="evenodd"/>
        <path id="Path_7098" data-name="Path 7098"
              d="M-2651.5,405.013c-.242.175-.662.449-1.255.821s-1.357.83-2.282,1.373-2.007,1.167-3.237,1.869-2.591,1.471-4.084,2.318a1.192,1.192,0,0,1-.185.03.536.536,0,0,1-.2-.03.211.211,0,0,1-.119-.214.957.957,0,0,1,.131-.415,3.358,3.358,0,0,1,.35-.458,5.487,5.487,0,0,1,.469-.47c.14-.107.518-.346,1.147-.714s1.448-.847,2.468-1.441q1.616-.924,2.887-1.676t2.225-1.356q1.024-.738,1.518-.5c.222.12.337.265.337.441a.9.9,0,0,1-.144.411Z"
              transform="translate(2905.433 1863.219)" fill="#121212" fill-rule="evenodd"/>
        <path id="Path_7099" data-name="Path 7099"
              d="M-2720.666,450.847a1.664,1.664,0,0,0,1.651-1.918,4.646,4.646,0,0,0-.07-.78q-.074-.33.05-.448a.42.42,0,0,1,.382-.087,1.006,1.006,0,0,1,.436.2,1.734,1.734,0,0,1,.35.382,3.386,3.386,0,0,1,.288,1.6,3.453,3.453,0,0,1-.231,1.215,2.787,2.787,0,0,1-.612.958,2.84,2.84,0,0,1-.971.63,3.479,3.479,0,0,1-1.213.242v0a3.414,3.414,0,0,1-3.085-1.3,3.129,3.129,0,0,1-.518-1.821,5.858,5.858,0,0,1,.1-1.016c.07-.365.168-.771.3-1.207a8.05,8.05,0,0,1,.519-1.323,8.028,8.028,0,0,1,.76-1.24q.876-1.238,1.431-1.24a.37.37,0,0,1,.424.415,7.032,7.032,0,0,1-.675,1.31,8.106,8.106,0,0,0-.646,1.331,11.631,11.631,0,0,0-.452,1.464,3.114,3.114,0,0,0-.091.56c-.012.178-.017.34-.017.485Q-2722.556,450.775-2720.666,450.847Z"
              transform="translate(2961.552 1827.012)" fill="#121212" fill-rule="evenodd"/>
        <path id="Path_7110" data-name="Path 7110"
              d="M-2769.418,497.317h10.686a3.378,3.378,0,0,0,3.259-3.439c0-.006,0-3.008,0-5.729"
              transform="translate(3002.817 1786.424)" fill="none" stroke="#121212" stroke-miterlimit="2.613"
              stroke-width="1" fill-rule="evenodd"/>
        <path id="Path_7111" data-name="Path 7111" d="M-3030.244,419.769v-5.078a3.468,3.468,0,0,1,3.443-3.472h20.358"
              transform="translate(3241.343 1856.753)" fill="none" stroke="#121212" stroke-miterlimit="2.613"
              stroke-width="1" fill-rule="evenodd"/>
        <path id="Path_7112" data-name="Path 7112" d="M-3030.244,495.273v5.078a3.468,3.468,0,0,0,3.443,3.472h3.6"
              transform="translate(3241.343 1779.917)" fill="none" stroke="#121212" stroke-miterlimit="2.613"
              stroke-width="1" fill-rule="evenodd"/>
    </g>
</svg>
