<svg xmlns="http://www.w3.org/2000/svg" width="28.516" height="27.335" viewBox="0 0 28.516 27.335">
    <path id="like_green" data-name="like green"
          d="M25.852,23.4c-.145,4.552,0,3.945-7.847,3.87-4.662-.044-2.973-.6-6.988-1.643-.874-.227-1.71-.285-2.53-.514l-.01-11.479c-.038-2.906.578-.866,3.794-3.013,3.115-2.079,4.365-5.23,5.073-8.829C17.655.209,18.441-.633,19.69.569c1.686,1.623.835,5.118.262,7.532-.989,4.166,2.626,2.462,5.957,2.893,1.765.228,1.5,1.375,1.36,2.873-.13,1.385,1.2,1.49,1.246,3.254a2.684,2.684,0,0,1-.588,1.634c-.774,1.046-.611.3-.394,1.688.273,1.75-.645,2.374-1.681,2.956ZM7.57,12.206c.3,1.33.129,9.353.116,11.329C7.67,25.842,6.539,25.556,4.4,25.549-.826,25.53.056,26.2.056,18.7c0-7.744-.758-7.777,3.383-7.776C5.253,10.922,7.215,10.63,7.57,12.206Z"
          transform="translate(0)" fill="#20cb00" fill-rule="evenodd"/>
</svg>
