<svg xmlns="http://www.w3.org/2000/svg" width="28.574" height="28.078" viewBox="0 0 28.574 28.078">
    <path id="like_line" data-name="like line"
          d="M25.173,23.4c-.145,4.552,0,3.945-7.847,3.87-4.662-.044-2.973-.6-6.988-1.643-.874-.227-1.71-.285-2.53-.514L7.8,13.632c-.038-2.906.578-.866,3.794-3.013,3.115-2.079,4.365-5.23,5.073-8.829.311-1.581,1.1-2.423,2.346-1.221,1.686,1.623.835,5.118.262,7.532-.989,4.166,2.626,2.462,5.957,2.893,1.765.228,1.5,1.375,1.36,2.873-.13,1.385,1.2,1.49,1.246,3.254a2.684,2.684,0,0,1-.588,1.634c-.774,1.046-.611.3-.394,1.688.273,1.75-.645,2.374-1.681,2.956ZM7.8,12.2c.3,1.33.044,9.421.031,11.4C7.814,25.9,6.539,25.615,4.4,25.608c-5.23-.019-4.348.654-4.348-6.85,0-7.744-.758-7.777,3.383-7.776C5.253,10.982,7.443,10.623,7.8,12.2Z"
          transform="translate(0.361 0.385)" fill="none" stroke="#1a1818" stroke-miterlimit="2.613" stroke-width="0.75"
          fill-rule="evenodd"/>
</svg>
