<svg xmlns="http://www.w3.org/2000/svg" width="351.89" height="405.376" viewBox="0 0 351.89 405.376">
    <g id="Group_465" data-name="Group 465" transform="translate(-459.511 -479.815)">
        <g id="Group_464" data-name="Group 464" transform="translate(546.382 557.357)">
            <path id="Path_158" data-name="Path 158"
                  d="M747.755,690.4c0,.021-.007.04-.011.061-.1.458-.218.931-.36,1.414-.011.037-.02.073-.031.11-.142.474-.308.961-.493,1.458-.018.05-.035.1-.054.149-.186.491-.395.993-.621,1.5-.026.059-.051.117-.078.177q-.344.762-.748,1.552l-.1.193q-.409.79-.875,1.6l-.117.2q-.474.816-1.005,1.654l-.125.2q-.541.846-1.139,1.71l-.126.181q-.613.877-1.281,1.77l-.114.15q-.687.911-1.431,1.835l-.087.107q-.767.947-1.592,1.9l-.045.051c-12.08,13.961-33.509,29.123-59.845,34.155v0q-2.128.407-4.3.726a107.288,107.288,0,0,1-54.754-7.658v-.014A92.273,92.273,0,0,1,589.2,715.629v.056a101.182,101.182,0,0,1-14.912-19.4q-2.788-4.668-5.3-9.946c-.167-.352-.335-.7-.5-1.055-.275-.594-.545-1.2-.815-1.8q-.348-.782-.689-1.577c-.226-.525-.45-1.052-.671-1.586-.282-.683-.56-1.377-.835-2.074-.168-.425-.338-.847-.5-1.278-.443-1.154-.877-2.322-1.3-3.516,0,0-1.818,13.465-2.2,19.729-.022.357.031,7.435.255,9.8l0-.023c.17,1.579.327,2.8.465,3.757.306,2.112.529,2.98.64,3.713l.005-.049c.1.5.211,1.146.566,2.618.245,1.008.516,2,.8,2.993.062.215.123.429.186.643.295,1,.6,1.986.938,2.962l0,.013c.349,1.024.724,2.034,1.115,3.035.031.081.062.162.094.243,15.939,40.48,64.969,62.427,109.338,54.259h0a97.766,97.766,0,0,0,28.554-9.907l.093-.051q1.712-.921,3.372-1.9h0c.026-.016.054-.03.08-.045q.968-.578,1.918-1.18c18.366-11.617,31.616-29.6,35.271-50.514q.378-2.163.618-4.368v0h0l2.186-20.149C747.928,689.467,747.853,689.926,747.755,690.4Z"
                  transform="translate(-561.47 -599.341)" fill="#ffa50a"/>
            <g id="Group_462" data-name="Group 462" transform="translate(2.147)">
                <path id="Path_159" data-name="Path 159" d="M767.964,775.576l-.036.02Z"
                      transform="translate(-623.179 -628.804)" fill="#e9d352"/>
                <path id="Path_160" data-name="Path 160"
                      d="M769.59,774.264q-.8.474-1.612.933Q768.79,774.738,769.59,774.264Z"
                      transform="translate(-623.193 -628.426)" fill="#e9d352"/>
                <path id="Path_161" data-name="Path 161" d="M744.354,786.01l-.027.008Z"
                      transform="translate(-616.37 -631.814)" fill="#e9d352"/>
                <path id="Path_162" data-name="Path 162"
                      d="M746.821,633.475c-11.555-43.161-61.208-71.212-110.885-62.642-48,8.28-78.47,47.722-70.054,89.31.038.193.08.385.12.578.06.282.114.565.177.848-.052-.234-.095-.467-.144-.7.137.643.275,1.287.43,1.932l.122.5.083.332c.075.295.151.586.23.882,11.555,43.161,61.208,71.212,110.885,62.642.385-.067.771-.135,1.153-.206.556-.1,1.109-.213,1.66-.324-.182.037-.362.077-.545.113.189-.037.376-.079.563-.117q.521-.1,1.038-.214c.189-.04.379-.077.567-.117-.17.037-.342.07-.513.106q.536-.114,1.069-.233c-.186.041-.369.086-.556.127.218-.048.433-.1.649-.147q.469-.106.934-.215c.181-.042.364-.082.544-.125-.167.04-.335.076-.5.115.357-.084.712-.169,1.067-.257-.189.046-.376.1-.565.142.262-.063.521-.129.783-.194s.53-.133.795-.2c.171-.044.342-.085.512-.129l-.507.128q.549-.141,1.094-.289c-.2.053-.391.109-.587.161.312-.082.621-.167.931-.252l.6-.166.189-.053-.135.037c.362-.1.722-.206,1.082-.311-.207.06-.411.124-.619.183.366-.1.728-.211,1.091-.319l.386-.117.369-.111-.24.071c.359-.109.715-.221,1.071-.334-.223.07-.444.144-.667.213q.632-.2,1.258-.4l.157-.051.532-.174c-.1.034-.207.065-.31.1.356-.117.709-.237,1.062-.357-.242.083-.482.169-.725.25a94.025,94.025,0,0,0,16.765-7.4l-.023.013q.843-.476,1.672-.968h0l.075-.043v0C740.2,697.674,755.506,665.919,746.821,633.475ZM565.845,659.946c-.1-.48-.183-.961-.268-1.441C565.662,658.986,565.75,659.466,565.845,659.946Zm-.418-2.306c-.087-.532-.164-1.064-.238-1.6C565.264,656.577,565.341,657.108,565.428,657.64Zm142.008,59.433c.393-.211.781-.427,1.17-.642C708.217,716.646,707.83,716.862,707.436,717.073Zm-13.287,5.839c.352-.124.7-.252,1.05-.378C694.85,722.66,694.5,722.788,694.149,722.912Zm1.987-.723c.349-.132.694-.267,1.04-.4C696.829,721.922,696.484,722.057,696.135,722.189Zm1.957-.761c.346-.139.689-.282,1.032-.425C698.782,721.145,698.439,721.289,698.093,721.427Zm1.929-.8c.344-.147.684-.3,1.025-.449C700.706,720.33,700.365,720.482,700.022,720.629Zm1.9-.835c.346-.157.687-.318,1.029-.479C702.608,719.476,702.266,719.636,701.921,719.794Zm1.868-.872c.348-.167.692-.339,1.037-.51C704.481,718.583,704.137,718.755,703.789,718.922Zm1.84-.908c.358-.181.712-.369,1.066-.554C706.34,717.646,705.987,717.833,705.629,718.014Zm3.2-19.894h0a77.34,77.34,0,0,1-34.775,15.1,86.932,86.932,0,0,1-21.347,1.007c-.513-.039-1.025-.08-1.537-.128-.186-.017-.371-.038-.558-.057-.448-.045-.9-.09-1.342-.142-.221-.026-.441-.055-.662-.083-.41-.05-.82-.1-1.228-.157-.242-.034-.483-.07-.724-.105l-.407-.061.4.06c-.383-.056-.767-.112-1.15-.174.248.04.5.075.746.113-.25-.038-.5-.073-.748-.113s-.5-.084-.756-.127c-.372-.063-.744-.126-1.116-.193-.258-.047-.514-.1-.771-.146-.363-.07-.726-.14-1.087-.213q-.393-.081-.783-.165-.534-.114-1.066-.234-.393-.09-.784-.183-.526-.125-1.051-.255c-26.545-6.633-48.517-25.364-55.143-50.115a57.109,57.109,0,0,1-1.9-17.839c1.492-28.144,24.2-52.661,57.33-58.9.429-.08.862-.16,1.3-.235,40.752-7.03,81.63,16.064,91.11,51.47C737.112,659.909,727.841,683.185,708.828,698.12Zm-56.128,16.1c-.509-.038-1.018-.079-1.526-.127C651.681,714.142,652.19,714.183,652.7,714.221Zm-2.111-.186c-.44-.044-.879-.089-1.316-.139C649.71,713.946,650.149,713.991,650.588,714.035Zm-1.991-.223c-.406-.051-.811-.1-1.215-.156C647.786,713.712,648.192,713.762,648.6,713.812Zm-10.51-1.952q.521.13,1.043.253Q638.608,711.989,638.088,711.86Zm1.84.439c.349.079.7.155,1.049.231C640.627,712.454,640.277,712.378,639.928,712.3Zm1.848.4c.356.073.713.142,1.069.211C642.489,712.84,642.132,712.771,641.776,712.7Zm1.858.359c.366.067.734.129,1.1.191C644.368,713.186,644,713.123,643.634,713.057Z"
                      transform="translate(-564.487 -569.292)" fill="#e9d352"/>
                <path id="Path_163" data-name="Path 163"
                      d="M738.632,787.735c-.109.031-.219.06-.328.091C738.413,787.8,738.523,787.766,738.632,787.735Z"
                      transform="translate(-614.633 -632.312)" fill="#e9d352"/>
                <path id="Path_164" data-name="Path 164" d="M741.525,786.9l-.164.049Z"
                      transform="translate(-615.515 -632.07)" fill="#e9d352"/>
            </g>
            <path id="Path_165" data-name="Path 165"
                  d="M737.458,642.008c-9.479-35.407-50.357-58.5-91.11-51.47-.433.075-.867.154-1.3.235-33.129,6.238-55.838,30.755-57.33,58.9a57.113,57.113,0,0,0,1.9,17.839c9.378,35.031,49.49,58.007,89.809,51.683.433-.068.867-.138,1.3-.213a77.335,77.335,0,0,0,34.775-15.1h0C734.521,688.951,743.793,665.674,737.458,642.008Z"
                  transform="translate(-569.021 -575.058)" fill="#e9b205"/>
            <path id="Path_166" data-name="Path 166"
                  d="M646.38,590.538c-.433.075-.867.154-1.3.235-33.129,6.238-55.838,30.755-57.33,58.9.355-.153.734-.277,1.092-.425,5.082-24.526,26.439-44.928,56.238-50.538.429-.081.862-.161,1.3-.235,40.752-7.03,81.631,16.063,91.11,51.47a57.8,57.8,0,0,1,1.8,10.956,56.919,56.919,0,0,0-1.8-18.891C728.011,606.6,687.132,583.508,646.38,590.538Z"
                  transform="translate(-569.053 -575.058)" fill="#d4a205"/>
            <g id="Group_463" data-name="Group 463" transform="translate(70.653 50.123)">
                <path id="Path_167" data-name="Path 167"
                      d="M696.678,646.739v34.319c0,11.047-4.289,13.723-12.865,13.723-8.9,0-13.354-2.879-13.354-14.334V646.739H660.77v35.7c0,15.769,7.436,25.076,22.309,25.076,15.525,0,23.287-9.62,23.287-26.013V646.739Z"
                      transform="translate(-660.77 -641.758)" fill="#d4a205"/>
                <path id="Path_168" data-name="Path 168"
                      d="M698.812,639.739a2.134,2.134,0,0,0-2.135,2.135v32.185c0,11.047-4.289,13.723-12.865,13.723-8.9,0-13.354-2.88-13.354-14.334V641.874a2.134,2.134,0,0,0-2.134-2.135H662.9a2.134,2.134,0,0,0-2.135,2.135v33.569c0,15.769,7.436,25.076,22.309,25.076,15.525,0,23.287-9.62,23.287-26.013V641.874a2.134,2.134,0,0,0-2.134-2.135Z"
                      transform="translate(-660.77 -639.739)" fill="#e9d352"/>
            </g>
        </g>
        <path id="Path_169" data-name="Path 169"
              d="M800.078,715.687c-.709-.956-2-1.931-2.565.926-.346,1.749.4,6.418,1.356,11.139-2.238-8.81-5.379-19.009-7.824-18.529-2.918.573.453,16.683,2.884,26.843-2.531-10-6.566-25.786-7.138-27.081-.888-2.009-4.327-1.79-4.711,1.629-.179,1.594,1.023,9.531,2.358,17.544-1.693-7.756-3.874-14.923-6.093-14.488-4.881.959,6.127,41.994,2.593,47.255s-6.65,11-6.65,11,2.6,9.63,3.418,26.368c.446,9.064-.689,36.291-.689,36.291l23.658,22.575,3.368-45.236s-2.02-17.62,1.632-30.952c2.245-8.2,6.551-13.434,7.025-16.34C813.282,761.071,805.241,722.645,800.078,715.687Z"
              transform="translate(-76.484 -51.866)" fill="#f6d7bc"/>
        <path id="Path_170" data-name="Path 170"
              d="M564.533,709.969c.709-.956,2-1.932,2.565.925.346,1.75-.4,6.418-1.356,11.139,2.239-8.81,5.38-19.009,7.825-18.529,2.917.573-.453,16.683-2.884,26.843,2.531-10,6.566-25.786,7.138-27.081.888-2.009,4.327-1.79,4.711,1.629.18,1.6-1.023,9.531-2.358,17.544,1.693-7.756,3.874-14.923,6.093-14.487,4.882.958-6.127,41.993-2.593,47.255s6.65,11,6.65,11-2.6,9.63-3.418,26.369c-.446,9.063.689,36.291.689,36.291l-23.658,22.574-3.368-45.236s2.02-17.62-1.632-30.952c-2.246-8.2-6.551-13.434-7.025-16.34C551.33,755.352,559.37,716.926,564.533,709.969Z"
              transform="translate(-12.321 -50.216)" fill="#f6d7bc"/>
        <path id="Path_171" data-name="Path 171"
              d="M598.151,958.077s-8.536-115.6-7.5-123.115c.271-1.969-31.264-9.676-36.22-2.83,0,0-3.2,124.163-.352,132.721C555.212,974.019,600.926,970.081,598.151,958.077Z"
              transform="translate(-12.614 -86.961)" fill="#38d28a"/>
        <path id="Path_172" data-name="Path 172"
              d="M751.216,961.029S764.062,843.964,764,840.115c-.058-3.778,26.852-7.053,40.547-3.558,3.2.816-5.539,111.851-5.338,130.166C794.408,979.456,747.626,973.452,751.216,961.029Z"
              transform="translate(-69.772 -88.611)" fill="#38d28a"/>
        <path id="Path_173" data-name="Path 173"
              d="M30.09,1.987,21.25,0,18.859,8.1,10.065,6.525,6.826,13.982l-6.774-.1L0,17.31l9.06.136,3.07-7.067,9.149,1.637L23.63,4.05l8.011,1.8Z"
              transform="translate(783.999 636.76) rotate(30)" fill="#c71845"/>
        <path id="Path_176" data-name="Path 176"
              d="M30.09,1.988,21.25,0,18.859,8.1,10.065,6.525,6.826,13.982l-6.774-.1L0,17.31l9.06.136,3.07-7.067,9.149,1.637L23.63,4.05l8.011,1.8Z"
              transform="translate(520.025 513.795) rotate(-99)" fill="#38d28a"/>
        <path id="Path_174" data-name="Path 174"
              d="M21.62,5.076,16.526,3.849l-2.881,7.978L5.976,10.95,2.844,16.569,0,14.983,4.189,7.469l7.268.83,3-8.3,7.665,1.847Z"
              transform="matrix(-0.883, -0.469, 0.469, -0.883, 479.041, 655.672)" fill="#ffa50a"/>
        <path id="Path_175" data-name="Path 175"
              d="M19.247,10.231l-4.535,1.093-2.565-7.1L5.32,5,2.532,0,0,1.412,3.729,8.1,10.2,7.361l2.668,7.389,6.824-1.645Z"
              transform="matrix(-0.07, 0.998, -0.998, -0.07, 728.465, 494.544)" fill="#3254f4"/>
    </g>
</svg>
