<svg xmlns="http://www.w3.org/2000/svg" width="19.59" height="13.551" viewBox="0 0 19.59 13.551">
    <g id="reply" transform="translate(19.896 13.551) rotate(180)" fill="none" stroke-linecap="round">
        <path d="M8.047,13.442.5,7.475a.5.5,0,0,1,0-.785L8.047.723a.5.5,0,0,1,.81.392V4.592a16.259,16.259,0,0,0,8.7-2.293A6.844,6.844,0,0,0,19.9,0c-.413,8.97-7.707,9.839-11.038,9.765v3.283a.5.5,0,0,1-.5.5A.492.492,0,0,1,8.047,13.442ZM19.9,0s0,0,0,0Z"
              stroke="none"/>
        <path d="M 8.106902122497559 12.53389930725098 L 8.106902122497559 9.76813793182373 L 8.106902122497559 9.001287460327148 L 8.873562812805176 9.018327713012695 C 8.987802505493164 9.020857810974121 9.103602409362793 9.022147178649902 9.217752456665039 9.022147178649902 C 10.87987232208252 9.022137641906738 13.28632259368896 8.757647514343262 15.31160259246826 7.497697830200195 C 17.13235092163086 6.364975452423096 18.31512451171875 4.618515968322754 18.84388542175293 2.289949893951416 C 18.58617782592773 2.499856233596802 18.2964038848877 2.714086771011353 17.97186279296875 2.926817655563354 C 15.65355205535889 4.44591760635376 12.5925121307373 5.258577823638916 8.873772621154785 5.342227458953857 L 8.106902122497559 5.359477519989014 L 8.106902122497559 4.59241771697998 L 8.106902122497559 1.631237268447876 L 1.208983778953552 7.082980155944824 L 8.106902122497559 12.53389930725098 M 8.354822158813477 13.55119800567627 C 8.249502182006836 13.55120754241943 8.141732215881348 13.51743793487549 8.046902656555176 13.44239807128906 L 0.4959024786949158 7.47539758682251 C 0.2430024743080139 7.274697780609131 0.2430024743080139 6.890397548675537 0.4959024786949158 6.690597534179688 L 8.046902656555176 0.7226976156234741 C 8.141559600830078 0.6478042602539063 8.249189376831055 0.6140758991241455 8.35432243347168 0.6140758991241455 C 8.61304759979248 0.6140758991241455 8.856902122497559 0.8181591629981995 8.856902122497559 1.115097641944885 L 8.856902122497559 4.59241771697998 C 13.14560222625732 4.49594783782959 15.88416290283203 3.39813756942749 17.5608024597168 2.299497604370117 C 19.2676830291748 1.180667638778687 19.8729133605957 0.06271763890981674 19.89529228210449 0.00312764011323452 C 19.49681854248047 8.661482810974121 12.68624210357666 9.772129058837891 9.217751502990723 9.772149085998535 C 9.092960357666016 9.772149085998535 8.972587585449219 9.770712852478027 8.856902122497559 9.76813793182373 L 8.856902122497559 13.0508975982666 C 8.856902122497559 13.34760761260986 8.613322257995605 13.55117797851563 8.354822158813477 13.55119800567627 Z M 19.89529228210449 0.00312764011323452 C 19.89532279968262 0.002417640294879675 19.89537239074707 0.00160764018073678 19.8954029083252 0.0008976402459666133 C 19.89560127258301 0.0006911357049830258 19.8957462310791 0.0005892808549106121 19.89583778381348 0.0005892808549106121 C 19.89610481262207 0.0005892808549106121 19.89591789245605 0.001458714483305812 19.89529228210449 0.00312764011323452 Z"
              stroke="none" fill="#121212"/>
    </g>
</svg>
