<svg xmlns="http://www.w3.org/2000/svg" width="150" height="150" viewBox="0 0 150 150">
    <defs>
        <linearGradient id="linear-gradient" x1="0.338" y1="0.941" x2="0.633" y2="0.139"
                        gradientUnits="objectBoundingBox">
            <stop offset="0" stop-color="#3b9ff4"/>
            <stop offset="1" stop-color="#22e8ce"/>
        </linearGradient>
    </defs>
    <g id="_150" data-name="150" transform="translate(-511.903 -1758.904)">
        <circle id="Ellipse_307" data-name="Ellipse 307" cx="75" cy="75" r="75" transform="translate(511.904 1758.904)"
                fill="#fff"/>
        <g id="logo_uper" data-name="logo uper" transform="translate(548.223 1791.735)">
            <path id="Path_3856" data-name="Path 3856"
                  d="M42.861,11.2V58.577A38.032,38.032,0,0,1,32.27,84.9L16.437,72.224h0A17.979,17.979,0,0,0,22.4,58.873V11.191c0-5.651,4.581-9.169,10.235-9.169S42.861,5.54,42.861,11.191Z"
                  transform="translate(34.617 -0.959)" fill="#1bf8cc" fill-rule="evenodd"/>
            <path id="Path_3857" data-name="Path 3857"
                  d="M16.674,65.422a17.943,17.943,0,0,0,5.069-12.488V5.252A10.121,10.121,0,0,1,21.8,4.178l7.227,3.939V53.227c0,3.158-2.418,8.782-4.04,11.312l-.079.12-6.987.728Z"
                  transform="translate(35.27 4.979)" fill="#15e5cb" fill-rule="evenodd"/>
            <path id="Path_3858" data-name="Path 3858"
                  d="M59.825,36.974A10.1,10.1,0,0,0,45.674,22.56c-.39.375-.762.766-1.16,1.108a17.259,17.259,0,0,1-11.827,4.46h-.544A17.965,17.965,0,0,1,18.9,22.286L6.165,38a38,38,0,0,0,25.674,9.991h1.153A38.013,38.013,0,0,0,58.856,37.83,10.892,10.892,0,0,0,59.825,36.974Z"
                  transform="translate(6.323 47.788)" fill="#28b7f9" fill-rule="evenodd"/>
            <path id="Path_3859" data-name="Path 3859"
                  d="M9.848,23.378l.034.026.023.023.139.124.038.034.131.116.034.03.131.113.041.034.143.12.023.019.15.12.026.023c.116.094.233.184.353.278l.019.011.15.116.053.038.131.1.045.03.128.094.064.045.116.079.064.045.128.086.049.034.135.086.056.038.158.1.023.015c.124.079.252.158.379.233l.056.034.128.075.075.045.12.068.071.041.116.064.083.045.116.064.071.034.124.068.075.038.135.068.06.03.394.191.071.034.128.056.086.041.113.049.1.041.1.045.1.041.105.045.09.034.128.053.079.03.131.049.075.03.135.049.075.026c.068.026.135.053.2.075l.068.019.143.053.083.026.128.041.094.03.12.038.09.026.128.038.083.023.135.038.086.026.124.03.094.026.154.038.056.015c.064.015.128.034.191.045l.03.008h0l.218.049.071.015.15.034.079.015.143.026.083.019.143.023.083.019.139.023.09.011.131.023.1.015.135.019.086.011.146.019.083.011h0c.071.011.143.015.214.026h0l.071.008.154.015.094.008.135.011.1.008.135.011.09.008.139.008.094,0,.135.008.1,0,.139,0,.094,0,.15,0h.083l.229,0h.544a17.035,17.035,0,0,0,10.633-3.5c.4-.3.788-.608,1.168-.935l.026-.026c.083-.071.165-.143.244-.214.312-.285.616-.582.909-.886l.007-.008a10.1,10.1,0,0,1,9.259-2.591c-.345.676-.687,1.273-1,1.761a20.393,20.393,0,0,1-14.166,9.334A21.573,21.573,0,0,1,9.848,23.378Z"
                  transform="translate(16.468 47.789)" fill="#20a9f7" fill-rule="evenodd"/>
            <path id="Path_3860" data-name="Path 3860"
                  d="M13.645,85.9A38.026,38.026,0,0,1,2.839,59.356V11.97a10.233,10.233,0,0,1,20.466,0V59.653a17.931,17.931,0,0,0,4.757,12.161c.2.169.394.349.582.537s.36.375.526.567l0,0v0A10.117,10.117,0,0,1,14.335,86.659,9.375,9.375,0,0,1,13.645,85.9Z"
                  transform="translate(-2.839 -1.739)" fill="#fcba1e" fill-rule="evenodd"/>
            <path id="Path_3861" data-name="Path 3861"
                  d="M11.424,1.905a10.239,10.239,0,0,1,6.706,9.608V59.2a17.931,17.931,0,0,0,4.757,12.161c.2.169.394.349.582.537s.36.375.526.567l0,0v0a10.122,10.122,0,0,1-4.832,16.291C10.819,81.783,4.718,71.582,4.718,61.726V11.513A10.239,10.239,0,0,1,11.424,1.905Z"
                  transform="translate(2.337 -1.282)" fill="#faa21d" fill-rule="evenodd"/>
            <path id="Path_3862" data-name="Path 3862"
                  d="M28.259,22.2A10.231,10.231,0,1,0,18.024,11.97,10.25,10.25,0,0,0,28.259,22.2Z"
                  transform="translate(38.989 -1.739)" fill="#33cfce" fill-rule="evenodd"/>
            <path id="Path_3863" data-name="Path 3863"
                  d="M6.165,24.589a37.991,37.991,0,0,0,25.67,9.987,37.414,37.414,0,0,1-16.659-8.305A10.132,10.132,0,0,1,6.165,24.589Z"
                  transform="translate(6.323 61.202)" fill="#1bf8cc" fill-rule="evenodd"/>
            <path id="Path_3864" data-name="Path 3864"
                  d="M24.321,43.425A15.219,15.219,0,1,0,9.1,28.2,15.249,15.249,0,0,0,24.321,43.425Z"
                  transform="translate(14.418 29.244)" fill-rule="evenodd" fill="url(#linear-gradient)"/>
            <path id="Path_3865" data-name="Path 3865"
                  d="M14.065,23.168a3.285,3.285,0,1,0-3.285-3.285A3.292,3.292,0,0,0,14.065,23.168Z"
                  transform="translate(19.035 39.191)" fill="#60fbff" fill-rule="evenodd"/>
        </g>
    </g>
</svg>
