<svg xmlns="http://www.w3.org/2000/svg" width="15.118" height="9.892" viewBox="0 0 15.118 9.892">
    <path id="See"
          d="M149.958,373.629a1.6,1.6,0,1,1-1.6,1.6,1.6,1.6,0,0,1,1.6-1.6Zm0-3.35c-3.4,0-6.272,3.265-7.231,4.489-.427.546-.43.365,0,.91.956,1.222,3.833,4.493,7.234,4.493,3.708,0,6.793-3.888,7.445-4.77.168-.227.158-.14-.026-.388-.7-.945-3.759-4.735-7.419-4.735Zm0,1.7a3.244,3.244,0,1,0,3.245,3.245A3.244,3.244,0,0,0,149.958,371.981Z"
          transform="translate(-142.405 -370.279)" fill="#d6d6d6" fill-rule="evenodd"/>
</svg>
