<svg xmlns="http://www.w3.org/2000/svg" width="15.98" height="14.092" viewBox="0 0 15.98 14.092">
    <g id="send" transform="translate(-313.733 -959.828)">
        <path id="Path_6383" data-name="Path 6383"
              d="M143.744,512.259c.358.17.669.316.968.443.684.29,1.335.58,1.968.857,1.39.608,2.627,1.191,3.988,1.754,1.3.537,2.512,1.085,4.049,1.741.678.289,1.328.521,1.955.862.463.252,1.033.612,1.618.325.974-.477.719-1.4.449-2.259-.157-.5-.509-1.313-.741-1.887-1.082-2.685-.291-1.447-3.645-2.08a72.366,72.366,0,0,0-11.078-.369C143.328,511.638,142.45,511.806,143.744,512.259Zm-.407-1.392a89.022,89.022,0,0,0,11.035-.381,12.445,12.445,0,0,1,1.254-.181c1.632-.106,1.836-.175,1.989-.807.218-.9.717-1.871,1.013-2.989.17-.64.745-1.428-.021-1.972-.733-.519-1.4-.22-2.156.1l-9.833,4.285c-.327.12-.636.274-.978.429l-1.984.85C142.724,510.583,142.987,510.867,143.336,510.867Z"
              transform="translate(170.717 455.573)" fill="#121212" fill-rule="evenodd"/>
    </g>
</svg>
