<svg xmlns="http://www.w3.org/2000/svg" width="12.5" height="11.959" viewBox="0 0 12.5 11.959">
    <defs>
        <linearGradient id="linear-gradient" x1="0.5" y1="40.782" x2="4.178" y2="40.782"
                        gradientUnits="objectBoundingBox">
            <stop offset="0" stop-color="#ffa000"/>
            <stop offset="0" stop-color="#d6d6d6"/>
            <stop offset="0.59" stop-color="#ffa000"/>
            <stop offset="1" stop-color="#d6d6d6"/>
        </linearGradient>
    </defs>
    <path id="Star_Y_and_G" data-name="Star Y and G"
          d="M31.2,463.067,32.562,466a.663.663,0,0,0,.542.389l3.117.345a.68.68,0,0,1,.388,1.173l-2.367,2.2a.663.663,0,0,0-.2.635l.636,3.071a.68.68,0,0,1-1,.732l-2.825-1.571a.663.663,0,0,0-.667,0l-2.724,1.553a.68.68,0,0,1-1-.721l.621-3.172a.663.663,0,0,0-.21-.633l-2.319-2.111a.68.68,0,0,1,.376-1.178l3.209-.39a.663.663,0,0,0,.538-.4l1.291-2.858a.68.68,0,0,1,1.236-.007Z"
          transform="translate(-24.327 -462.674)" fill-rule="evenodd" fill="url(#linear-gradient)"/>
</svg>
