<svg xmlns="http://www.w3.org/2000/svg" width="23.322" height="19.346" viewBox="0 0 23.322 19.346">
    <path id="tooman_black" data-name="tooman black"
          d="M-3560.89-343.48c-1.1.352-1.107,2.22-.034,1.932a1.131,1.131,0,0,0,.777-.982c.115-.657-.094-1.157-.743-.949Zm13.739,9.67c.532.289.767.038,1.283-.158a8.6,8.6,0,0,1,1.291-.368c.469-.1,2.965-.144,1.985-.861-.873-.638-4.945-.31-4.559,1.386Zm-10.157-3.439c.2-.453-.107-1.118-1.076,0a7.632,7.632,0,0,0-1.691,5.273c.552,2.993,4.715,2.191,6.213,1.066a1.993,1.993,0,0,0,.514-.722,2.091,2.091,0,0,0-.943-2.359.912.912,0,0,0-.928-.03c-.246.176-.256.52-.282.91-.13,1.956-2.3,1.56-2.849,1.1-1.257-1.055.673-4.4,1.042-5.241Zm7.594,9.424a6.816,6.816,0,0,1-2.393,2.724,5.541,5.541,0,0,1-3.5.859.882.882,0,0,1-.233-.085c-.172-.11-.069-.012-.167-.176-.284-.649.679-.6,1.1-.7,1.215-.284,3.264-1.184,3.38-2.641-1.473-.264-.583-2.722,0-3.252a1.677,1.677,0,0,1,1.761-.421c.58.314.48,1.138.543,1.932a3.727,3.727,0,0,0,3.2-1.28,6.46,6.46,0,0,0,.526-1.052c.9-.045,1.361,1.475-.4,2.986-1.138.975-1.99,1.09-3.81,1.1Zm-6.691-13.87c-.233.577-1.314,1.245-1.762,1.643-2.509,2.227-6.132,5.091-6.054,8.971.061,3.013,2.427,3.884,5.464,3.72a12.555,12.555,0,0,0,3.7-.915c1.292-.286,1.526.694-1.179,1.683-2.417.884-5.418,1.342-7.5-.177a2.773,2.773,0,0,1-1.1-1.167,6.015,6.015,0,0,1-.687-1.634,7.118,7.118,0,0,1,.316-4.013,9.572,9.572,0,0,1,.737-1.528c.157-.253.275-.438.449-.683a8.483,8.483,0,0,1,.493-.7,24.032,24.032,0,0,1,2.174-2.425c.552-.509,3.136-2.783,3.768-3.169C-3556.487-342.768-3556.234-342.119-3556.405-341.7Z"
          transform="translate(3565.688 343.528)" fill="#121212" fill-rule="evenodd"/>
</svg>
