<svg xmlns="http://www.w3.org/2000/svg" width="53.854" height="54.014" viewBox="0 0 53.854 54.014">
    <defs>
        <linearGradient id="linear-gradient" x1="1.058" x2="-0.798" y2="1.91" gradientUnits="objectBoundingBox">
            <stop offset="0" stop-color="#ffd979"/>
            <stop offset="0.081" stop-color="#fff"/>
            <stop offset="0.194" stop-color="#efdc30"/>
            <stop offset="0.264" stop-color="#e7b94d"/>
            <stop offset="0.282" stop-color="#ecc43c"/>
            <stop offset="0.335" stop-color="#f9e510"/>
            <stop offset="0.362" stop-color="#fff200"/>
            <stop offset="0.386" stop-color="#ebd908"/>
            <stop offset="0.415" stop-color="#d9c30f"/>
            <stop offset="0.443" stop-color="#cfb613"/>
            <stop offset="0.468" stop-color="#ccb215"/>
            <stop offset="0.501" stop-color="#cfae22"/>
            <stop offset="0.559" stop-color="#d9a543"/>
            <stop offset="0.676" stop-color="#fddd72"/>
            <stop offset="0.7" stop-color="#fad96f"/>
            <stop offset="0.72" stop-color="#f3cf67"/>
            <stop offset="0.739" stop-color="#e6be5a"/>
            <stop offset="0.756" stop-color="#d5a647"/>
            <stop offset="0.773" stop-color="#be8730"/>
            <stop offset="0.785" stop-color="#aa6b1a"/>
            <stop offset="0.808" stop-color="#af7220"/>
            <stop offset="0.842" stop-color="#bf8832"/>
            <stop offset="0.885" stop-color="#d8ac4f"/>
            <stop offset="0.934" stop-color="#fbdd77"/>
            <stop offset="0.938" stop-color="#ffe27b"/>
        </linearGradient>
        <filter id="Union_211" x="10.547" y="8.466" width="33.345" height="39.051" filterUnits="userSpaceOnUse">
            <feOffset input="SourceAlpha"/>
            <feGaussianBlur stdDeviation="1.5" result="blur"/>
            <feFlood flood-color="#fff"/>
            <feComposite operator="in" in2="blur"/>
            <feComposite in="SourceGraphic"/>
        </filter>
    </defs>
    <g id="Coin_Uper_OK" data-name="Coin Uper OK" transform="translate(-370.949 -2070.704)">
        <path id="Path_7052" data-name="Path 7052"
              d="M26.825,0A26.823,26.823,0,1,1,0,26.823,26.824,26.824,0,0,1,26.825,0Z"
              transform="translate(371.152 2071.071)" fill="#eeaf00"/>
        <path id="Path_7053" data-name="Path 7053"
              d="M100.8,64.426A26.927,26.927,0,1,0,73.875,91.351,26.93,26.93,0,0,0,100.8,64.426Z"
              transform="translate(324 2033.204)" fill="url(#linear-gradient)"/>
        <path id="Path_7054" data-name="Path 7054" d="M22.72,0A22.72,22.72,0,1,1,0,22.72,22.72,22.72,0,0,1,22.72,0Z"
              transform="translate(376.282 2075.121)" fill="#de9800"/>
        <path id="Path_7055" data-name="Path 7055" d="M21.487,0A21.314,21.314,0,1,1,0,21.313,21.4,21.4,0,0,1,21.487,0Z"
              transform="translate(376.673 2075.498)" fill="#fff700"/>
        <path id="Path_7056" data-name="Path 7056"
              d="M-621.832,5010.865a25.7,25.7,0,0,1,9.26-7.562c4.332-2.039,9.834-2.466,11.59-2.574"
              transform="translate(1000.037 -2927.731)" fill="none" stroke="#fff" stroke-linecap="round"
              stroke-width="1"/>
        <path id="Path_7057" data-name="Path 7057" d="M-625.826,5023.212a27.732,27.732,0,0,1,1.632-8.8"
              transform="translate(999.332 -2925.318)" fill="none" stroke="#fff" stroke-linecap="round"
              stroke-width="1"/>
        <g transform="matrix(1, 0, 0, 1, 370.95, 2070.7)" filter="url(#Union_211)">
            <path id="Union_211-2" data-name="Union 211"
                  d="M802.893-2894.15a11.827,11.827,0,0,1-7.44-2.633l0,0q-.234-.188-.457-.388l-.093-.084a3.226,3.226,0,0,1-.316-.277c-.076-.077-.148-.157-.215-.239a11.853,11.853,0,0,1-3.367-8.27v-14.768a3.189,3.189,0,0,1,3.189-3.189,3.185,3.185,0,0,1,1.1.195h0a3.185,3.185,0,0,1,1.072.66l0,0,.023.022.006.006.019.019.007.007.022.022.008.008.018.019.009.01.015.015.011.011.012.013.012.012.01.011.024.026.009.01.013.015.008.009.015.017,0,0,.053.063,0,0,.017.021,0,0q.036.045.07.091l0,0a3.2,3.2,0,0,1,.282.458h0q.061.121.112.248h0l.011.028h0c.011.028.021.056.031.084v0l.009.026,0,.006.009.025v0c.009.027.017.053.026.08l0,.009.007.022,0,.01c.007.025.014.05.021.075l0,.01.006.022,0,.011.005.021,0,.014.008.036,0,.014,0,.02,0,.014,0,.02,0,.016,0,.019,0,.023,0,.023,0,.021,0,.015,0,.022,0,.014,0,.026v.01l0,.035,0,.013,0,.024,0,.014,0,.023v.013l0,.035v.006l0,.031v.012l0,.026v.013l0,.027v.01c0,.012,0,.025,0,.037s0,.005,0,.008,0,.02,0,.029,0,.009,0,.013,0,.017,0,.026,0,.008,0,.013,0,.025,0,.037v0h0v14.856a5.584,5.584,0,0,0,1.483,3.79c.062.053.122.11.181.168s.112.116.165.177l.005,0,0,0,.022.02.026.023.007.007.038.033.007.006.006.005.012.01.034.029.011.01.041.034,0,0h0l.025.021.028.022.009.007.01.008.069.054.006,0,.028.021h0l.048.036.006,0,.024.018.027.02.013.01.029.021.015.01.013.01.025.017.014.01.011.008.006,0,.037.025.02.013.018.012.024.015.018.012.008.006.012.008.021.013.035.022.019.012.04.024.017.01.015.009.007,0,.017.01.028.017.019.011.007,0,.037.021.01.005.005,0,.012.007.047.026.012.006.051.028,0,0,.01.005.009,0,.077.04h0l.06.03,0,0,.007,0,.029.014.023.011,0,0,.043.02.008,0,.01,0c.059.027.118.053.178.078l.007,0,.006,0a5.608,5.608,0,0,0,.591.207h0q.087.025.175.047h0l.067.016.01,0,.059.014.011,0,.058.013.011,0,.026.005h.01l.034.007.03.006.025,0,.042.008.026,0,.039.007.029,0h0l.023,0,.044.007.024,0,.045.006.023,0,.042.005.024,0,.039,0,.022,0,.048,0,.016,0,.053,0h.016l.054,0h.012l.058,0h.007l.056,0h.009l.059,0h.011l.059,0h.363a5.575,5.575,0,0,0,3.267-1.094q.157-.117.31-.246l.124-.109h0l.026-.023c.09-.085.178-.175.269-.263l0,0a5.59,5.59,0,0,0,1.555-3.641h0q0-.038,0-.076h0q0-.038,0-.076h0q0-.038,0-.077v-14.856h0v0a3.154,3.154,0,0,1,.017-.335h0a3.19,3.19,0,0,1,3.171-2.854,3.189,3.189,0,0,1,3.189,3.189v14.768a11.854,11.854,0,0,1-3.3,8.2h0a3.194,3.194,0,0,1-.23.257,3.107,3.107,0,0,1-.3.266,11.842,11.842,0,0,1-8.059,3.168Zm-4-12.432a4.135,4.135,0,0,1,4.127-4.127,4.136,4.136,0,0,1,4.127,4.127,4.136,4.136,0,0,1-4.127,4.127A4.135,4.135,0,0,1,798.892-2906.582Z"
                  transform="translate(-775.85 2937.07)" fill="#fadb04" stroke="#c59b11" stroke-width="0.2"/>
        </g>
        <g id="Layer_4" data-name="Layer 4" transform="translate(386.096 2083.769)">
            <g id="Group_3957" data-name="Group 3957" transform="translate(0 0)">
                <path id="Path_7025" data-name="Path 7025"
                      d="M197.892,97.976v14.766a11.851,11.851,0,0,1-3.3,8.2l-4.934-3.95h0a5.6,5.6,0,0,0,1.857-4.161V97.977h0v0a3.189,3.189,0,0,1,6.378,0Z"
                      transform="translate(-173.746 -94.785)" fill="#fadb04" stroke="#c59b11" stroke-width="0.2"
                      fill-rule="evenodd"/>
                <path id="Path_7026" data-name="Path 7026"
                      d="M153.055,127.658a5.588,5.588,0,0,0,3.787,1.48h.17a5.627,5.627,0,0,0,5.61-5.61V108.671h0v0a3.2,3.2,0,0,1,.017-.335l2.252,1.228v14.058a8.716,8.716,0,0,1-1.258,3.525,6.35,6.35,0,0,1-4.415,2.908A6.719,6.719,0,0,1,153.055,127.658Z"
                      transform="translate(-144.854 -105.479)" fill="#f5d105" stroke="#c59b11" stroke-width="0.2"
                      fill-rule="evenodd"/>
                <path id="Path_7027" data-name="Path 7027"
                      d="M149.316,200.049a3.148,3.148,0,0,0-4.409-4.493c-.122.118-.238.239-.361.346a5.38,5.38,0,0,1-3.686,1.389h-.17a5.6,5.6,0,0,1-4.127-1.821h0l-3.969,4.9a11.842,11.842,0,0,0,8,3.114h.36a11.845,11.845,0,0,0,8.06-3.168A3.19,3.19,0,0,0,149.316,200.049Z"
                      transform="translate(-128.702 -173.632)" fill="#eabb08" stroke="#c59b11" stroke-width="0.2"
                      fill-rule="evenodd"/>
                <path id="Path_7028" data-name="Path 7028"
                      d="M153.055,195.812l.01.009.007.007.044.039.011.01.041.036.011.01.041.035.012.01.044.037.008.007.046.037.009.007.11.086.006,0,.048.036.015.011.042.031.014.01.04.028.02.014.036.025.02.014.04.027.015.01.041.027.018.012.048.031.008.005.118.073.017.01.04.024.023.013.037.021.023.013.036.02.025.014.037.02.022.012.039.02.023.012.042.021.019.009.123.059.023.01.039.018.028.012.035.015.03.013.032.013.031.013.034.014.028.011.039.016.024.01.041.016.024.009.043.016.023.008.063.022.02.007.046.015.025.008.04.013.029.009.037.012.028.008.04.012.026.008.041.012.027.007.039.01.029.008.048.012.018,0,.06.014.009,0h0l.067.015.022,0,.047.01.024.005.044.009.027.005.044.008.026,0,.043.007.028,0,.04.006.03,0,.043.006.027,0,.046.006.026,0h0l.066.008h0l.023,0,.047,0,.029,0,.042,0,.03,0,.042,0,.029,0,.043,0,.029,0,.042,0h.417a5.3,5.3,0,0,0,3.313-1.091q.187-.138.364-.291l.009-.008c.025-.022.05-.044.075-.067q.146-.133.283-.275l0,0a3.148,3.148,0,0,1,2.885-.806c-.108.21-.214.4-.312.548a6.35,6.35,0,0,1-4.415,2.908A6.72,6.72,0,0,1,153.055,195.812Z"
                      transform="translate(-144.854 -173.633)" fill="#f0c606" stroke="#c59b11" stroke-width="0.2"
                      fill-rule="evenodd"/>
                <path id="Path_7029" data-name="Path 7029"
                      d="M117.484,121.012a11.851,11.851,0,0,1-3.367-8.27V97.974a3.189,3.189,0,1,1,6.378,0v0h0v14.856a5.587,5.587,0,0,0,1.483,3.79c.062.053.123.109.181.168s.112.116.164.177h0a3.153,3.153,0,0,1-4.625,4.281Q117.584,121.135,117.484,121.012Z"
                      transform="translate(-114.117 -94.785)" fill="#db9b0b" stroke="#c59b11" stroke-width="0.2"
                      fill-rule="evenodd"/>
                <path id="Path_7030" data-name="Path 7030"
                      d="M126.646,95.709a3.19,3.19,0,0,1,2.089,2.994v0h0v14.856a5.587,5.587,0,0,0,1.483,3.79c.062.053.123.109.181.168s.112.116.165.177h0a3.154,3.154,0,0,1-1.506,5.077c-2.6-2.174-4.5-5.353-4.5-8.424V98.7A3.19,3.19,0,0,1,126.646,95.709Z"
                      transform="translate(-122.357 -95.514)" fill="#e0a60a" stroke="#c59b11" stroke-width="0.2"
                      fill-rule="evenodd"/>
                <path id="Path_7031" data-name="Path 7031"
                      d="M201.663,101.161a3.189,3.189,0,1,0-3.189-3.189A3.2,3.2,0,0,0,201.663,101.161Z"
                      transform="translate(-180.706 -94.783)" fill="#ffe603" stroke="#c59b11" stroke-width="0.2"
                      fill-rule="evenodd"/>
                <path id="Path_7032" data-name="Path 7032"
                      d="M132.594,221.723a11.842,11.842,0,0,0,8,3.113,11.663,11.663,0,0,1-5.192-2.589A3.154,3.154,0,0,1,132.594,221.723Z"
                      transform="translate(-128.702 -194.986)" fill="#e5b009" stroke="#c59b11" stroke-width="0.2"
                      fill-rule="evenodd"/>
                <path id="Path_7033" data-name="Path 7033"
                      d="M153.691,164.121a4.128,4.128,0,1,0-4.128-4.128A4.136,4.136,0,0,0,153.691,164.121Z"
                      transform="translate(-141.671 -142.574)" fill="#e6a900" stroke="#c59b11" stroke-width="0.2"
                      fill-rule="evenodd"/>
                <path id="Path_7034" data-name="Path 7034"
                      d="M159.552,179.268a.891.891,0,1,0-.891-.891A.893.893,0,0,0,159.552,179.268Z"
                      transform="translate(-149.032 -160.067)" fill="#fff" stroke="#c59b11" stroke-width="0.2"
                      fill-rule="evenodd"/>
            </g>
        </g>
    </g>
</svg>
