<svg xmlns:xlink="http://www.w3.org/1999/xlink" xmlns="http://www.w3.org/2000/svg" width="16.5" height="18.5"
     viewBox="0 0 16.5 18.5">
    <defs>
        <linearGradient id="linear-gradient" x1="0.632" y1="0.068" x2="0.376" y2="1" gradientUnits="objectBoundingBox">
            <stop offset="0" stop-color="#fff"/>
            <stop offset="1" stop-color="#eb91a1"/>
        </linearGradient>
        <linearGradient id="linear-gradient-2" x1="0.062" y1="0.109" x2="1.071" y2="0.898"
                        xlink:href="#linear-gradient"/>
    </defs>
    <g id="Pharmacology2" transform="translate(-387.291 -2090.857)">
        <path id="Path_7629" data-name="Path 7629"
              d="M97.437,274.863l.047-.107-.047.107Zm6.673,8.307a4.107,4.107,0,0,1-2.1.513c-2.834,0-5.131-2.716-5.131-6.066a12.605,12.605,0,0,1,.2-1.619c.009,0,1.048.48,1.375,0a.779.779,0,0,1,1.315-.2c.57.485,1.053.334,1.885.13l.2-.049a3.791,3.791,0,0,0,.23.731,8.237,8.237,0,0,0,.766,1.7c-.816-.155-1.375-.366-1.375-.594v1.172A4.546,4.546,0,0,0,104.111,283.169Z"
              transform="translate(292.139 1825.424)" fill="#cecdcd" stroke="#121212" stroke-linecap="round"
              stroke-linejoin="round" stroke-width="0.5" fill-rule="evenodd"/>
        <path id="Path_7630" data-name="Path 7630"
              d="M95.608,244.79H93.183a3.076,3.076,0,0,0-2.81,3.271A3.361,3.361,0,0,0,91.96,251a6.381,6.381,0,0,1,.483-.973,2.194,2.194,0,0,1-1.108-1.97,2.022,2.022,0,0,1,1.847-2.151h2.425Z"
              transform="translate(297.541 1849.53)" fill="none" stroke="#121212" stroke-linecap="round"
              stroke-linejoin="round" stroke-width="0.5" fill-rule="evenodd"/>
        <path id="Path_7631" data-name="Path 7631"
              d="M119.807,228.414h1.719a.527.527,0,0,1,.481.56v1.635h-2.681v-1.635A.527.527,0,0,1,119.807,228.414Z"
              transform="translate(273.428 1862.693)" fill="#cecdcd" stroke="#121212" stroke-linecap="round"
              stroke-linejoin="round" stroke-width="0.5" fill-rule="evenodd"/>
        <rect id="Rectangle_1298" data-name="Rectangle 1298" width="2.042" height="1.9"
              transform="translate(393.073 2093.956)" fill="none" stroke="#121212" stroke-linecap="round"
              stroke-linejoin="round" stroke-width="0.5"/>
        <path id="Path_7632" data-name="Path 7632"
              d="M88.178,301.117c0-.388.531-.7,1.185-.7a1.936,1.936,0,0,1,.4.041,1.351,1.351,0,0,0,.539.232.759.759,0,0,1,.147.145h0v.01l0,.011v.025l0,.014v.007l0,.011v.015h0v.04h0v.019h0v0h0v.018h0v.019h0v.021h0v.039h0v.019h0v.043l0,.015v0h0v.019h0l0,.019h0v.018h0v.022l0,.009v.009l0,.013,0,.005v.018h0v0l0,0v0l0,0,0,0v0l0,0,0,0,0,0,0,0,0,0,0,0h0v0l0,0a.609.609,0,0,1-.052.069,1.363,1.363,0,0,0-.818.367,1.974,1.974,0,0,1-.236.014C88.709,301.82,88.178,301.505,88.178,301.117Z"
              transform="translate(299.363 1804.916)" fill="#fff" stroke="#121212" stroke-linecap="round"
              stroke-linejoin="round" stroke-width="0.5" fill-rule="evenodd"/>
        <path id="Path_7633" data-name="Path 7633"
              d="M102.865,286.4c-.373,0-.676.551-.676,1.231,0,.07,0,.139.009.206a1.4,1.4,0,0,1,.329.86.639.639,0,0,0,.064.059l.006,0h0l.009,0h0l.009,0h.012l.007,0h.06l.011,0h.273l.009,0H103l.007,0h0l.024.007h0l.009,0h0l.008,0h0l.013,0h0l.013,0h0l0,0h.017l.009-.006a1.408,1.408,0,0,1,.423-1.061c0-.027,0-.054,0-.082C103.542,286.955,103.239,286.4,102.865,286.4Z"
              transform="translate(287.731 1816.479)" fill="#fff" stroke="#121212" stroke-linecap="round"
              stroke-linejoin="round" stroke-width="0.5" fill-rule="evenodd"/>
        <path id="Path_7634" data-name="Path 7634"
              d="M102.307,310.719c.373,0,.677-.551.677-1.231,0-.07,0-.139-.01-.206a1.4,1.4,0,0,1-.329-.86.667.667,0,0,0-.064-.059h0l-.007,0h0l-.007,0h0l-.009,0h-.335l-.018,0h0l-.048-.012h0l-.026-.008h0l-.051-.019-.009.006a1.409,1.409,0,0,1-.423,1.061c0,.027,0,.054,0,.082C101.63,310.168,101.933,310.719,102.307,310.719Z"
              transform="translate(288.195 1798.388)" fill="#fff" stroke="#121212" stroke-linecap="round"
              stroke-linejoin="round" stroke-width="0.5" fill-rule="evenodd"/>
        <path id="Path_7635" data-name="Path 7635"
              d="M112.4,300.559c0,.388-.531.7-1.185.7a1.923,1.923,0,0,1-.4-.041,1.355,1.355,0,0,0-.539-.232.757.757,0,0,1-.147-.145v0h0v-.006h0v0h0v-.006h0v-.006h0v0h0V300.8h0v0h0v-.006h0v-.006h0v0h0v-.006h0v-.011h0v-.006h0v-.011h0v-.006h0v-.011h0v-.006h0V300.7h0V300.7h0v-.011h0v-.006h0v-.011h0v-.006h0v-.011h0v-.006h0v0h0v-.006h0v-.006h0v0h0V300.6h0v-.013h0v0h0v-.019h0v0h0v-.013h0v-.01h0v-.008l0-.015V300.5h0v0h0v-.012h0v0h0v0h0v-.012h0v0h0v-.018h0v0h0v-.012h0v0h0v0h0v-.012h0v0h0v-.017h0v0h0v-.012h0l0,0h0l0,0h0v-.011h0l0,0h0v-.011h0a.616.616,0,0,1,.052-.069,1.363,1.363,0,0,0,.818-.367,1.971,1.971,0,0,1,.236-.014C111.874,299.857,112.4,300.171,112.4,300.559Z"
              transform="translate(281.101 1805.376)" fill="#fff" stroke="#121212" stroke-linecap="round"
              stroke-linejoin="round" stroke-width="0.5" fill-rule="evenodd"/>
        <path id="Path_7636" data-name="Path 7636"
              d="M102.115,299.569a.8.8,0,1,1-.773.8A.788.788,0,0,1,102.115,299.569Z"
              transform="translate(288.434 1805.613)" fill="#fff" stroke="#121212" stroke-linecap="round"
              stroke-linejoin="round" stroke-width="0.5" fill-rule="evenodd"/>
        <path id="Path_7637" data-name="Path 7637"
              d="M95.036,292.22a.748.748,0,0,1,.3.063,1.44,1.44,0,0,1,.476-1.13c.463-.481,1.052-.648,1.316-.374s.1.886-.36,1.367a1.383,1.383,0,0,1-1.051.5.83.83,0,0,1,0,.752,1.383,1.383,0,0,1,1.051.5c.463.481.624,1.093.36,1.367s-.853.107-1.316-.374a1.44,1.44,0,0,1-.476-1.13.747.747,0,0,1-.6,0,1.44,1.44,0,0,1-.476,1.13c-.463.481-1.052.648-1.316.374s-.1-.886.36-1.367a1.383,1.383,0,0,1,1.051-.5.83.83,0,0,1,0-.752,1.383,1.383,0,0,1-1.051-.5c-.463-.481-.624-1.093-.36-1.367s.853-.107,1.316.374a1.44,1.44,0,0,1,.476,1.131A.744.744,0,0,1,95.036,292.22Z"
              transform="translate(295.513 1812.961)" fill="#eb91a1" stroke="#121212" stroke-linecap="round"
              stroke-linejoin="round" stroke-width="0.5" fill-rule="evenodd"/>
        <path id="Path_7638" data-name="Path 7638"
              d="M104.512,243.549a4.724,4.724,0,0,1,2.337,1.9c-.124.14-.252.293-.379.46a4.46,4.46,0,0,0-1.617-1.1c-1.119-.369-1.835-.659-1.992-.684a11.249,11.249,0,0,0,0,3.532l-.2.049a1.872,1.872,0,0,1-1.92-.251.779.779,0,0,0-1.315.2c-.327.48-1.362,0-1.37,0a5.731,5.731,0,0,1,3.358-4.091c.916-.887.471-1.556.571-4.049h2.042C104.12,241.915,103.763,242.911,104.512,243.549Z"
              transform="translate(291.157 1853.782)" fill="none" stroke="#121212" stroke-linecap="round"
              stroke-linejoin="round" stroke-width="0.5" fill-rule="evenodd"/>
        <path id="Path_7639" data-name="Path 7639"
              d="M135.007,289.549v1.22c0,2.465-1.732,4.482-3.85,4.482h-2.227c-2.117,0-3.85-2.017-3.85-4.482v-1.22c0,.48,2.222.869,4.963.869S135.007,290.029,135.007,289.549Z"
              transform="translate(268.534 1813.555)" fill="none" stroke="#121212" stroke-linecap="round"
              stroke-linejoin="round" stroke-width="0.5" fill-rule="evenodd"/>
        <path id="Path_7640" data-name="Path 7640"
              d="M140.661,270.756a5.594,5.594,0,0,1,.394-2.645,7.536,7.536,0,0,1,2.266-2.945,9.913,9.913,0,0,1,1.45,3.616,3.851,3.851,0,0,1-.2,2.026c-.44.026-.908.043-1.394.046a10.144,10.144,0,0,0,.057-3.21,16.431,16.431,0,0,1-.8,3.206C141.8,270.838,141.2,270.806,140.661,270.756Z"
              transform="translate(255.67 1833.155)" stroke="#121212" stroke-linecap="round" stroke-linejoin="round"
              stroke-width="0.5" fill-rule="evenodd" fill="url(#linear-gradient)"/>
        <path id="Path_7641" data-name="Path 7641"
              d="M129.98,265.148a5.184,5.184,0,0,0-1.748-1.177c-1.119-.369-1.7-.546-1.86-.571a9.522,9.522,0,0,0,.143,4.052,8.44,8.44,0,0,0,.826,1.7c.386.073.843.135,1.353.182a5.509,5.509,0,0,1,.183-2.022c-.19-.366-.709-1.355-1.23-2.208a5.44,5.44,0,0,1,1.456,1.552A6.734,6.734,0,0,1,129.98,265.148Z"
              transform="translate(267.68 1834.573)" stroke="#121212" stroke-linecap="round" stroke-linejoin="round"
              stroke-width="0.5" fill-rule="evenodd" fill="url(#linear-gradient-2)"/>
        <path id="Path_7642" data-name="Path 7642"
              d="M163.886,271.2l1.377-3.446c1.179-.018.855-1.245.216-1.721-.595-.443-1.137-.367-1.331-.1a1.02,1.02,0,0,0-.056.845l-.976,1.165a8.329,8.329,0,0,1,.312,1.279,3.941,3.941,0,0,1-.194,2.026C163.459,271.233,163.677,271.216,163.886,271.2Z"
              transform="translate(237.03 1832.715)" fill="none" stroke="#121212" stroke-linecap="round"
              stroke-linejoin="round" stroke-width="0.5" fill-rule="evenodd"/>
        <path id="Path_7643" data-name="Path 7643"
              d="M133.064,285.966c1.264.158,1.943.413,1.943.706,0,.48-2.222.869-4.963.869s-4.963-.389-4.963-.869c0-.169.274-.326.748-.459"
              transform="translate(268.534 1816.459)" fill="none" stroke="#121212" stroke-linecap="round"
              stroke-linejoin="round" stroke-width="0.5" fill-rule="evenodd"/>
        <path id="Path_7644" data-name="Path 7644"
              d="M147.711,298.081h.673a.106.106,0,0,1,.1.113v.763a.106.106,0,0,0,.1.112h.656a.106.106,0,0,1,.1.113v.783a.106.106,0,0,1-.1.113h-.656a.106.106,0,0,0-.1.113v.763a.106.106,0,0,1-.1.113h-.673a.106.106,0,0,1-.1-.113v-.763a.106.106,0,0,0-.1-.113h-.656a.106.106,0,0,1-.1-.113v-.783a.106.106,0,0,1,.1-.113h.656a.106.106,0,0,0,.1-.112v-.763A.106.106,0,0,1,147.711,298.081Z"
              transform="translate(250.583 1806.709)" fill="#cecdcd" stroke="#121212" stroke-linecap="round"
              stroke-linejoin="round" stroke-width="0.5" fill-rule="evenodd"/>
        <path id="Path_7645" data-name="Path 7645"
              d="M170.468,266.265a1.081,1.081,0,0,1,.5,1.278.794.794,0,0,1-1.2.18,1.08,1.08,0,0,1-.5-1.278A.794.794,0,0,1,170.468,266.265Z"
              transform="translate(231.903 1832.432)" fill="#cecdcd" stroke="#121212" stroke-linecap="round"
              stroke-linejoin="round" stroke-width="0.5" fill-rule="evenodd"/>
    </g>
</svg>
