<svg xmlns="http://www.w3.org/2000/svg" width="16.568" height="18.62" viewBox="0 0 16.568 18.62">
    <g id="Dairy1" transform="translate(0.304 0.251)">
        <path id="Path_6908" data-name="Path 6908"
              d="M212.043,60.881h-2.267a6.8,6.8,0,0,1-1.058,3.209,6.255,6.255,0,0,0-.957,3.964v6.559s-.05.755,2.216.944"
              transform="translate(-207.761 -58.828)" fill="none" stroke="#bdbdbd" stroke-linecap="round"
              stroke-miterlimit="2.613" stroke-width="0.5" fill-rule="evenodd"/>
        <path id="Path_6909" data-name="Path 6909"
              d="M229.014,60.881h1.259a6.839,6.839,0,0,0,1.058,3.22,6.293,6.293,0,0,1,.957,3.978V69.26"
              transform="translate(-224.752 -58.828)" fill="none" stroke="#bdbdbd" stroke-linecap="round"
              stroke-miterlimit="2.613" stroke-width="0.5" fill-rule="evenodd"/>
        <path id="Path_6910" data-name="Path 6910" d="M207.763,98.882a29.563,29.563,0,0,0,7.485.042"
              transform="translate(-207.763 -89.659)" fill="none" stroke="#bdbdbd" stroke-linecap="round"
              stroke-miterlimit="2.613" stroke-width="0.5" fill-rule="evenodd"/>
        <path id="Path_6911" data-name="Path 6911" d="M207.763,118.98a14.984,14.984,0,0,0,3.548.254"
              transform="translate(-207.763 -105.961)" fill="none" stroke="#bdbdbd" stroke-linecap="round"
              stroke-miterlimit="2.613" stroke-width="0.5" fill-rule="evenodd"/>
        <path id="Path_6912" data-name="Path 6912" d="M250.551,82.187l1.1-.854s3.664.078,5.669,2.54v2.342"
              transform="translate(-241.892 -74.659)" fill="none" stroke="#bdbdbd" stroke-linecap="round"
              stroke-miterlimit="2.613" stroke-width="0.5" fill-rule="evenodd"/>
        <path id="Path_6913" data-name="Path 6913"
              d="M246.952,94.007s-7.8,2.3-7.783,2.307c0,.012.3,2.029-2.039,1.292,0,0,.192,2.356-2.116,1.657v3.22l6.044-.9"
              transform="translate(-231.526 -84.818)" fill="none" stroke="#bdbdbd" stroke-linecap="round"
              stroke-linejoin="round" stroke-miterlimit="2.613" stroke-width="0.5" fill-rule="evenodd"/>
        <path id="Path_6914" data-name="Path 6914"
              d="M271.013,111.056c.624.744.417,2.934-1.143,4.084s-3.434,1.355-4.506.079-.417-2.934,1.143-4.084S270.388,110.312,271.013,111.056Z"
              transform="translate(-255.341 -98.092)" fill="none" stroke="#bdbdbd" stroke-linecap="round"
              stroke-miterlimit="2.613" stroke-width="0.5" fill-rule="evenodd"/>
        <path id="Path_6915" data-name="Path 6915"
              d="M245.948,123.882a.657.657,0,1,1-.682.656A.669.669,0,0,1,245.948,123.882Z"
              transform="translate(-239.676 -109.035)" fill="none" stroke="#bdbdbd" stroke-linecap="round"
              stroke-miterlimit="2.613" stroke-width="0.5" fill-rule="evenodd"/>
        <path id="Path_6916" data-name="Path 6916" d="M256.495,118.015a.552.552,0,0,1-1.1,0"
              transform="translate(-247.77 -104.268)" fill="none" stroke="#bdbdbd" stroke-linecap="round"
              stroke-miterlimit="2.613" stroke-width="0.5" fill-rule="evenodd"/>
        <path id="Path_6917" data-name="Path 6917"
              d="M217.461,51.28s-.115-.745-.148-.884-.1-.33.357-.344,2.782,0,2.782,0,.514-.053.467.249-.161.982-.161.982"
              transform="translate(-215.369 -50.043)" fill="none" stroke="#bdbdbd" stroke-linecap="round"
              stroke-miterlimit="2.613" stroke-width="0.5" fill-rule="evenodd"/>
    </g>
</svg>
