<svg xmlns="http://www.w3.org/2000/svg" width="17.029" height="18.109" viewBox="0 0 17.029 18.109">
    <g id="CD_Lamp1" data-name="CD Lamp1" transform="translate(-237.783 -2120.646)">
        <path id="Path_6896" data-name="Path 6896"
              d="M-357.86,304.906a5.932,5.932,0,0,1,2.008-.321,6.406,6.406,0,0,1,6.406,6.406c0,1.7-.129,3.446-1.2,4.592l-.391.281-.843.156-.287-1.7a.461.461,0,0,0-.53-.377l-7.695,1.3a.458.458,0,0,0-.185.076,4.614,4.614,0,0,1-1.082-2.663,1.992,1.992,0,0,0,1.387-.963,5.51,5.51,0,0,0,.2-2.275v-1.219a4.1,4.1,0,0,0,1.666-1.666A4.413,4.413,0,0,0-357.86,304.906Z"
              transform="translate(604.009 1820.436)" fill="none" stroke="#bdbdbd" stroke-linecap="round"
              stroke-linejoin="round" stroke-width="0.5" fill-rule="evenodd"/>
        <ellipse id="Ellipse_262" data-name="Ellipse 262" cx="2.225" cy="2.225" rx="2.225" ry="2.225"
                 transform="translate(246.004 2128.984)" fill="none" stroke="#bdbdbd" stroke-linecap="round"
                 stroke-linejoin="round" stroke-width="0.5"/>
        <path id="Path_7005" data-name="Path 7005" d="M.638.552A1.087,1.087,0,1,1-.45,1.639,1.087,1.087,0,0,1,.638.552Z"
              transform="translate(247.617 2129.625)" fill="none" stroke="#bdbdbd" stroke-linecap="round"
              stroke-width="0.5"/>
        <path id="Path_6897" data-name="Path 6897" d="M-320.821,313.472a5.142,5.142,0,0,1,5.142,5.142"
              transform="translate(568.977 1812.784)" fill="none" stroke="#bdbdbd" stroke-linecap="round"
              stroke-linejoin="round" stroke-width="0.5" fill-rule="evenodd"/>
        <path id="Path_6898" data-name="Path 6898"
              d="M-293.122,375.718l-.149-.8a.526.526,0,0,0-.608-.388l-.707.107.325,1.731.707-.107A.483.483,0,0,0-293.122,375.718Z"
              transform="translate(546.413 1760.084)" fill="none" stroke="#bdbdbd" stroke-miterlimit="2.613"
              stroke-width="0.5" fill-rule="evenodd"/>
        <path id="Path_7003" data-name="Path 7003" d="M.707,1.619.529.588" transform="translate(249.619 2134.837)"
              fill="none" stroke="#bdbdbd" stroke-linecap="round" stroke-width="0.5"/>
        <path id="Path_7002" data-name="Path 7002" d="M1.268,0,0,.318" transform="translate(249.613 2135.771)"
              fill="none" stroke="#bdbdbd" stroke-linecap="round" stroke-width="0.5"/>
        <line id="Line_778" data-name="Line 778" x1="0.415" y1="2.521" transform="translate(247.466 2135.082)"
              fill="none" stroke="#bdbdbd" stroke-linecap="round" stroke-linejoin="round" stroke-width="0.5"/>
        <path id="Path_7004" data-name="Path 7004" d="M.338,1.209.183.287" transform="translate(244.355 2136.168)"
              fill="none" stroke="#bdbdbd" stroke-linecap="round" stroke-width="0.5"/>
        <line id="Line_780" data-name="Line 780" y1="4.129" transform="translate(242.009 2125.375)" fill="none"
              stroke="#bdbdbd" stroke-linecap="round" stroke-linejoin="round" stroke-width="0.5"/>
        <line id="Line_781" data-name="Line 781" x1="1.31" y1="1.315" transform="translate(240.706 2124.073)"
              fill="none" stroke="#bdbdbd" stroke-linecap="round" stroke-linejoin="round" stroke-width="0.5"/>
        <line id="Line_782" data-name="Line 782" y1="1.315" x2="1.31" transform="translate(242.009 2124.073)"
              fill="none" stroke="#bdbdbd" stroke-linecap="round" stroke-linejoin="round" stroke-width="0.5"/>
        <path id="Path_6899" data-name="Path 6899"
              d="M-395.943,322.137a3.509,3.509,0,0,1-.1-.823,3.441,3.441,0,0,1,1.351-2.748"
              transform="translate(635.295 1803.873)" fill="none" stroke="#bdbdbd" stroke-linecap="round"
              stroke-linejoin="round" stroke-width="0.5" fill-rule="evenodd"/>
        <path id="Path_6900" data-name="Path 6900"
              d="M-396.565,317.808v.777a.16.16,0,0,1-.159.159h-3.431a.16.16,0,0,1-.159-.159V317.8c0-.11,0-.106-.111-.17a4.052,4.052,0,0,1-2.045-3.522,4.054,4.054,0,0,1,4.054-4.054,4.054,4.054,0,0,1,4.054,4.054,4.053,4.053,0,0,1-2.12,3.564.156.156,0,0,0-.083.14Zm-2.155,4.311h.561a1.6,1.6,0,0,0,1.594-1.594v-.509h-3.749v.509A1.6,1.6,0,0,0-398.72,322.119Z"
              transform="translate(640.503 1810.846)" fill="none" stroke="#bdbdbd" stroke-linecap="round"
              stroke-linejoin="round" stroke-width="0.5" fill-rule="evenodd"/>
        <path id="Path_7001" data-name="Path 7001"
              d="M.564,0H7.969a.57.57,0,0,1,.564.576V2.2a.57.57,0,0,1-.564.576H.564A.57.57,0,0,1,0,2.2V.576A.57.57,0,0,1,.564,0Z"
              transform="matrix(0.985, -0.174, 0.174, 0.985, 243.248, 2135.733)" fill="none" stroke="#bdbdbd"
              stroke-width="0.5"/>
    </g>
</svg>
