<svg xmlns="http://www.w3.org/2000/svg" width="14.741" height="16.318" viewBox="0 0 14.741 16.318">
    <g id="Chocolate1" transform="translate(-394.748 -2011.502)">
        <path id="Path_7679" data-name="Path 7679"
              d="M188.93,301.238s-1.222-1.643-3.884-.263a5.352,5.352,0,0,0-1.228.9,4.031,4.031,0,0,0-.78,4.891c.95,1.367,4.009,1.3,5.629-1.265S188.93,301.238,188.93,301.238Zm0,0s-1.222-1.643-3.884-.263a4.548,4.548,0,0,0-2.243,2.53c1.529-.071.3.879.484,1.875s.4.6,1.087-.012.726-.314,1.091.5.815.8,1.066-.227a5.292,5.292,0,0,1,.476-1.634c.249-.41,1.3.238,1.7-.377s-.742-.862-.42-1.631a1.141,1.141,0,0,1,.712-.67c-.04-.061-.065-.093-.065-.093Zm-2.491.846s-.315-.377-.965-.023a1,1,0,0,0-.454,1.393c.246.314,1,.268,1.386-.356a.838.838,0,0,0,.033-1.013Zm-1.549-.413.038.049m-.895,1.013.038.049m.833,1.42.038.049m-.977.27.038.049m2.1-.254.037.049m.176-3.209.037.049m1.01.256.037.049m-.281,1.214.037.048m.763.368.037.049"
              transform="translate(212.472 1715.149)" fill="none" stroke="#bdbdbd" stroke-linecap="round"
              stroke-linejoin="round" stroke-width="0.5" fill-rule="evenodd"/>
        <g id="Group_4513" data-name="Group 4513" transform="translate(398.07 2011.977)">
            <path id="Path_7662" data-name="Path 7662"
                  d="M198.979,293.011l-.169.782a.919.919,0,0,0,.627,1.055l4.9,1.447a.768.768,0,0,0,.981-.58l.169-.782a.918.918,0,0,0-.627-1.055l-4.9-1.447A.768.768,0,0,0,198.979,293.011Z"
                  transform="translate(-196.759 -291.315)" fill="none" stroke="#bdbdbd" stroke-linecap="round"
                  stroke-linejoin="round" stroke-width="0.5" fill-rule="evenodd"/>
            <path id="Path_7663" data-name="Path 7663" d="M194.511,291.723l-.154.714-2.058.122.452-2.09Z"
                  transform="translate(-192.298 -289.99)" fill="none" stroke="#bdbdbd" stroke-linecap="round"
                  stroke-linejoin="round" stroke-width="0.5" fill-rule="evenodd"/>
            <path id="Path_7664" data-name="Path 7664"
                  d="M193.895,289.792l.188-.855,1.386,1.97-.178.811-2.034.973.192-.872"
                  transform="translate(-193.257 -289.162)" fill="none" stroke="#bdbdbd" stroke-linecap="round"
                  stroke-linejoin="round" stroke-width="0.5" fill-rule="evenodd"/>
            <path id="Path_7665" data-name="Path 7665" d="M219.834,300.336l-.154.714,1.762,1.249.452-2.09Z"
                  transform="translate(-211.109 -296.681)" fill="none" stroke="#bdbdbd" stroke-linecap="round"
                  stroke-linejoin="round" stroke-width="0.5" fill-rule="evenodd"/>
            <path id="Path_7666" data-name="Path 7666"
                  d="M221.705,298.852l.188-.989-2.035,1.131-.179.937,1.387,2.271.192-1.008"
                  transform="translate(-211.109 -295.587)" fill="none" stroke="#bdbdbd" stroke-linecap="round"
                  stroke-linejoin="round" stroke-width="0.5" fill-rule="evenodd"/>
            <line id="Line_903" data-name="Line 903" y1="1.97" x2="2.036" transform="translate(3.237 1.728)" fill="none"
                  stroke="#bdbdbd" stroke-linecap="round" stroke-linejoin="round" stroke-width="0.5"/>
            <line id="Line_904" data-name="Line 904" y1="1.97" x2="2.036" transform="translate(4.695 2.158)" fill="none"
                  stroke="#bdbdbd" stroke-linecap="round" stroke-linejoin="round" stroke-width="0.5"/>
            <line id="Line_905" data-name="Line 905" y1="1.97" x2="2.036" transform="translate(6.153 2.588)" fill="none"
                  stroke="#bdbdbd" stroke-linecap="round" stroke-linejoin="round" stroke-width="0.5"/>
            <line id="Line_906" data-name="Line 906" y1="1.01" x2="1.044" transform="translate(7.611 3.979)" fill="none"
                  stroke="#bdbdbd" stroke-linecap="round" stroke-linejoin="round" stroke-width="0.5"/>
            <line id="Line_907" data-name="Line 907" y1="1.675" x2="1.73" transform="translate(2.085 1.298)" fill="none"
                  stroke="#bdbdbd" stroke-linecap="round" stroke-linejoin="round" stroke-width="0.5"/>
        </g>
        <path id="Path_7680" data-name="Path 7680"
              d="M206.462,304.37s-2.419-.922-2.308,2.106c0,0-1.865.281-1,1.785a1.468,1.468,0,0,0-.868,1.865c.462,1.344,2.013.6,2.013.6a2.8,2.8,0,0,0,3.933,0s1.717.762,1.976-.662a1.522,1.522,0,0,0-.794-1.825s.7-1.865-1.09-1.685c0,0-.868-.7-1.385-.662S205.964,304.971,206.462,304.37Z"
              transform="translate(198.975 1712.528)" fill="none" stroke="#bdbdbd" stroke-linecap="round"
              stroke-linejoin="round" stroke-width="0.5" fill-rule="evenodd"/>
        <path id="Path_7681" data-name="Path 7681" d="M208.462,311.387a4.458,4.458,0,0,0,3.213.762"
              transform="translate(194.667 1707.617)" fill="none" stroke="#bdbdbd" stroke-linecap="round"
              stroke-linejoin="round" stroke-width="0.5" fill-rule="evenodd"/>
        <path id="Path_7682" data-name="Path 7682" d="M216.238,317.025s-1,1.685-4.118,1"
              transform="translate(192.154 1703.744)" fill="none" stroke="#bdbdbd" stroke-linecap="round"
              stroke-linejoin="round" stroke-width="0.5" fill-rule="evenodd"/>
        <path id="Path_7683" data-name="Path 7683"
              d="M204.61,327.644l.137,1.054a11.929,11.929,0,0,0,6.112,0l.421-3.658a2.007,2.007,0,0,1-1.511-.07,2.8,2.8,0,0,1-3.933,0,1.958,1.958,0,0,1-1.412.1,2.116,2.116,0,0,1,.738,1.695A1.193,1.193,0,0,1,204.61,327.644Z"
              transform="translate(197.442 1698.286)" fill="none" stroke="#bdbdbd" stroke-linecap="round"
              stroke-linejoin="round" stroke-width="0.5" fill-rule="evenodd"/>
        <g id="Group_4514" data-name="Group 4514" transform="translate(402.863 2023.438)">
            <line id="Line_908" data-name="Line 908" x2="0.379" y2="3.772" transform="translate(0 0)" fill="none"
                  stroke="#bdbdbd" stroke-linecap="round" stroke-linejoin="round" stroke-width="0.5"/>
            <line id="Line_909" data-name="Line 909" x2="0.172" y2="3.418" transform="translate(1.204 0.483)"
                  fill="none" stroke="#bdbdbd" stroke-linecap="round" stroke-linejoin="round" stroke-width="0.5"/>
            <line id="Line_910" data-name="Line 910" y2="3.301" transform="translate(2.367 0.653)" fill="none"
                  stroke="#bdbdbd" stroke-linecap="round" stroke-linejoin="round" stroke-width="0.5"/>
            <line id="Line_911" data-name="Line 911" x1="0.171" y2="3.4" transform="translate(3.358 0.525)" fill="none"
                  stroke="#bdbdbd" stroke-linecap="round" stroke-linejoin="round" stroke-width="0.5"/>
            <line id="Line_912" data-name="Line 912" x1="0.379" y2="3.771" transform="translate(4.352 0.033)"
                  fill="none" stroke="#bdbdbd" stroke-linecap="round" stroke-linejoin="round" stroke-width="0.5"/>
        </g>
        <g id="Group_4515" data-name="Group 4515" transform="translate(395.026 2023.809)">
            <path id="Path_7671" data-name="Path 7671"
                  d="M184.226,326.737a8.4,8.4,0,0,1,1.5,1.277,1.489,1.489,0,0,1-.359,2.022c-.885.671-2.991.192-2.778-1.349S183.311,327.7,184.226,326.737Z"
                  transform="translate(-182.572 -326.737)" fill="none" stroke="#bdbdbd" stroke-linecap="round"
                  stroke-linejoin="round" stroke-width="0.5" fill-rule="evenodd"/>
            <path id="Path_7672" data-name="Path 7672"
                  d="M185.928,333.292a1.455,1.455,0,0,1-.563.81c-.885.671-2.991.192-2.778-1.349h0a.743.743,0,0,1,.6.231c.222.27.355.239.536-.118s.358.689.64.185.3-.5.483-.131.3.085.488-.059C185.474,332.754,185.747,332.839,185.928,333.292Z"
                  transform="translate(-182.572 -330.803)" fill="none" stroke="#bdbdbd" stroke-linecap="round"
                  stroke-linejoin="round" stroke-width="0.5" fill-rule="evenodd"/>
            <path id="Path_7673" data-name="Path 7673" d="M190,329.893s.33.177.387.426"
                  transform="translate(-187.674 -328.905)" fill="none" stroke="#bdbdbd" stroke-linecap="round"
                  stroke-linejoin="round" stroke-width="0.5" fill-rule="evenodd"/>
        </g>
        <path id="Path_7684" data-name="Path 7684"
              d="M194.9,322.377s.745,1.857,1.7,2.356,1.8.359,2.018-.718-1.294-2.249-1.9-2.734-.989-.418-.7.193.827,1.992.854,2.1a1.836,1.836,0,0,0-1.109-1.055C194.884,322.261,194.9,322.377,194.9,322.377Z"
              transform="translate(203.985 1701.04)" fill="none" stroke="#bdbdbd" stroke-linecap="round"
              stroke-linejoin="round" stroke-width="0.5" fill-rule="evenodd"/>
        <path id="Path_7685" data-name="Path 7685"
              d="M197.337,324.078a13.985,13.985,0,0,0-.521-1.384,1.987,1.987,0,0,0-.886-.265,2.082,2.082,0,0,0,.266,1.015A1.75,1.75,0,0,1,197.337,324.078Z"
              transform="translate(203.282 1700.037)" fill="none" stroke="#bdbdbd" stroke-linecap="round"
              stroke-linejoin="round" stroke-width="0.5" fill-rule="evenodd"/>
        <path id="Path_7686" data-name="Path 7686"
              d="M193.21,329.856a1.7,1.7,0,0,0-1.443.249,1.358,1.358,0,0,0,.337,2.215c.875.247,2.915.21,3.246-.449a.729.729,0,0,0-.14-.789,2.049,2.049,0,0,1-1.05-.274A2.919,2.919,0,0,1,193.21,329.856Z"
              transform="translate(206.426 1694.964)" fill="none" stroke="#bdbdbd" stroke-linecap="round"
              stroke-linejoin="round" stroke-width="0.5" fill-rule="evenodd"/>
        <path id="Path_7687" data-name="Path 7687" d="M192.458,333.532a.9.9,0,0,1-.957-.708"
              transform="translate(206.32 1692.89)" fill="none" stroke="#bdbdbd" stroke-linecap="round"
              stroke-linejoin="round" stroke-width="0.5" fill-rule="evenodd"/>
        <path id="Path_7688" data-name="Path 7688" d="M198.886,335.854s-1.267-.156-2.35-.326"
              transform="translate(202.861 1691.032)" fill="none" stroke="#bdbdbd" stroke-linecap="round"
              stroke-linejoin="round" stroke-width="0.5" fill-rule="evenodd"/>
    </g>
</svg>
